<mxfile host="app.diagrams.net" agent="Mozilla/5.0 (Windows NT 10.0; Win64; x64) AppleWebKit/537.36 (KHTML, like Gecko) Chrome/131.0.0.0 Safari/537.36" version="24.8.6" pages="10">
  <diagram id="C5RBs43oDa-KdzZeNtuy" name="FDD-Main">
    <mxGraphModel dx="2048" dy="638" grid="1" gridSize="10" guides="1" tooltips="1" connect="1" arrows="1" fold="1" page="1" pageScale="1" pageWidth="827" pageHeight="1169" math="0" shadow="0">
      <root>
        <mxCell id="WIyWlLk6GJQsqaUBKTNV-0" />
        <mxCell id="WIyWlLk6GJQsqaUBKTNV-1" parent="WIyWlLk6GJQsqaUBKTNV-0" />
        <mxCell id="lWrojG8ZAEGJMrB_fnO6-37" style="edgeStyle=orthogonalEdgeStyle;rounded=0;orthogonalLoop=1;jettySize=auto;html=1;exitX=0.5;exitY=1;exitDx=0;exitDy=0;entryX=0.5;entryY=0;entryDx=0;entryDy=0;endArrow=none;endFill=0;" parent="WIyWlLk6GJQsqaUBKTNV-1" source="lWrojG8ZAEGJMrB_fnO6-30" target="lWrojG8ZAEGJMrB_fnO6-31" edge="1">
          <mxGeometry relative="1" as="geometry" />
        </mxCell>
        <mxCell id="lWrojG8ZAEGJMrB_fnO6-30" value="Hệ thống SmartHome" style="rounded=0;whiteSpace=wrap;html=1;" parent="WIyWlLk6GJQsqaUBKTNV-1" vertex="1">
          <mxGeometry x="519.94" y="140" width="120" height="60" as="geometry" />
        </mxCell>
        <mxCell id="lwgh-rvu3t1g0YJXenew-2" style="edgeStyle=orthogonalEdgeStyle;rounded=0;orthogonalLoop=1;jettySize=auto;html=1;exitX=0.25;exitY=1;exitDx=0;exitDy=0;entryX=0;entryY=0.5;entryDx=0;entryDy=0;endArrow=none;endFill=0;" parent="WIyWlLk6GJQsqaUBKTNV-1" source="lWrojG8ZAEGJMrB_fnO6-31" target="lWrojG8ZAEGJMrB_fnO6-43" edge="1">
          <mxGeometry relative="1" as="geometry" />
        </mxCell>
        <mxCell id="lwgh-rvu3t1g0YJXenew-3" style="edgeStyle=orthogonalEdgeStyle;rounded=0;orthogonalLoop=1;jettySize=auto;html=1;exitX=0.25;exitY=1;exitDx=0;exitDy=0;entryX=0;entryY=0.5;entryDx=0;entryDy=0;endArrow=none;endFill=0;" parent="WIyWlLk6GJQsqaUBKTNV-1" source="lWrojG8ZAEGJMrB_fnO6-31" target="lWrojG8ZAEGJMrB_fnO6-44" edge="1">
          <mxGeometry relative="1" as="geometry" />
        </mxCell>
        <mxCell id="lwgh-rvu3t1g0YJXenew-4" style="edgeStyle=orthogonalEdgeStyle;rounded=0;orthogonalLoop=1;jettySize=auto;html=1;exitX=0.25;exitY=1;exitDx=0;exitDy=0;entryX=0;entryY=0.5;entryDx=0;entryDy=0;endArrow=none;endFill=0;" parent="WIyWlLk6GJQsqaUBKTNV-1" source="lWrojG8ZAEGJMrB_fnO6-31" target="lWrojG8ZAEGJMrB_fnO6-45" edge="1">
          <mxGeometry relative="1" as="geometry" />
        </mxCell>
        <mxCell id="ZnI_OXmdWYOGaNleJEPG-1" style="edgeStyle=orthogonalEdgeStyle;rounded=0;orthogonalLoop=1;jettySize=auto;html=1;exitX=0.25;exitY=1;exitDx=0;exitDy=0;entryX=0;entryY=0.5;entryDx=0;entryDy=0;endArrow=none;endFill=0;" parent="WIyWlLk6GJQsqaUBKTNV-1" source="lWrojG8ZAEGJMrB_fnO6-31" target="ZnI_OXmdWYOGaNleJEPG-0" edge="1">
          <mxGeometry relative="1" as="geometry" />
        </mxCell>
        <mxCell id="lWrojG8ZAEGJMrB_fnO6-31" value="Quản lý tài khoản" style="rounded=0;whiteSpace=wrap;html=1;" parent="WIyWlLk6GJQsqaUBKTNV-1" vertex="1">
          <mxGeometry x="-260" y="360" width="230" height="60" as="geometry" />
        </mxCell>
        <mxCell id="lWrojG8ZAEGJMrB_fnO6-38" style="edgeStyle=orthogonalEdgeStyle;rounded=0;orthogonalLoop=1;jettySize=auto;html=1;exitX=0.5;exitY=0;exitDx=0;exitDy=0;entryX=0.5;entryY=1;entryDx=0;entryDy=0;endArrow=none;endFill=0;" parent="WIyWlLk6GJQsqaUBKTNV-1" source="lWrojG8ZAEGJMrB_fnO6-32" target="lWrojG8ZAEGJMrB_fnO6-30" edge="1">
          <mxGeometry relative="1" as="geometry" />
        </mxCell>
        <mxCell id="lWrojG8ZAEGJMrB_fnO6-65" style="edgeStyle=orthogonalEdgeStyle;rounded=0;orthogonalLoop=1;jettySize=auto;html=1;entryX=0;entryY=0.5;entryDx=0;entryDy=0;endArrow=none;endFill=0;exitX=0.25;exitY=1;exitDx=0;exitDy=0;" parent="WIyWlLk6GJQsqaUBKTNV-1" source="lWrojG8ZAEGJMrB_fnO6-32" target="lWrojG8ZAEGJMrB_fnO6-46" edge="1">
          <mxGeometry relative="1" as="geometry">
            <mxPoint x="170" y="420" as="sourcePoint" />
          </mxGeometry>
        </mxCell>
        <mxCell id="lWrojG8ZAEGJMrB_fnO6-32" value="Quản lý nhà" style="rounded=0;whiteSpace=wrap;html=1;" parent="WIyWlLk6GJQsqaUBKTNV-1" vertex="1">
          <mxGeometry x="40" y="360" width="220" height="60" as="geometry" />
        </mxCell>
        <mxCell id="lWrojG8ZAEGJMrB_fnO6-39" style="edgeStyle=orthogonalEdgeStyle;rounded=0;orthogonalLoop=1;jettySize=auto;html=1;exitX=0.5;exitY=0;exitDx=0;exitDy=0;endArrow=none;endFill=0;entryX=0.5;entryY=1;entryDx=0;entryDy=0;" parent="WIyWlLk6GJQsqaUBKTNV-1" source="lWrojG8ZAEGJMrB_fnO6-33" target="lWrojG8ZAEGJMrB_fnO6-30" edge="1">
          <mxGeometry relative="1" as="geometry">
            <mxPoint x="460" y="270" as="targetPoint" />
          </mxGeometry>
        </mxCell>
        <mxCell id="REANl_uHcf_742eDeE6I-1" style="edgeStyle=orthogonalEdgeStyle;rounded=0;orthogonalLoop=1;jettySize=auto;html=1;exitX=0.25;exitY=1;exitDx=0;exitDy=0;entryX=0;entryY=0.5;entryDx=0;entryDy=0;endArrow=none;endFill=0;" parent="WIyWlLk6GJQsqaUBKTNV-1" source="lWrojG8ZAEGJMrB_fnO6-33" target="REANl_uHcf_742eDeE6I-0" edge="1">
          <mxGeometry relative="1" as="geometry" />
        </mxCell>
        <mxCell id="lWrojG8ZAEGJMrB_fnO6-33" value="Quản lý phòng" style="rounded=0;whiteSpace=wrap;html=1;" parent="WIyWlLk6GJQsqaUBKTNV-1" vertex="1">
          <mxGeometry x="330" y="360" width="230" height="60" as="geometry" />
        </mxCell>
        <mxCell id="lWrojG8ZAEGJMrB_fnO6-40" style="edgeStyle=orthogonalEdgeStyle;rounded=0;orthogonalLoop=1;jettySize=auto;html=1;exitX=0.5;exitY=0;exitDx=0;exitDy=0;endArrow=none;endFill=0;entryX=0.5;entryY=1;entryDx=0;entryDy=0;" parent="WIyWlLk6GJQsqaUBKTNV-1" source="lWrojG8ZAEGJMrB_fnO6-34" target="lWrojG8ZAEGJMrB_fnO6-30" edge="1">
          <mxGeometry relative="1" as="geometry">
            <mxPoint x="460" y="270" as="targetPoint" />
          </mxGeometry>
        </mxCell>
        <mxCell id="lWrojG8ZAEGJMrB_fnO6-34" value="Quản lý thiết bị" style="rounded=0;whiteSpace=wrap;html=1;" parent="WIyWlLk6GJQsqaUBKTNV-1" vertex="1">
          <mxGeometry x="639.94" y="360" width="250.06" height="60" as="geometry" />
        </mxCell>
        <mxCell id="lWrojG8ZAEGJMrB_fnO6-41" style="edgeStyle=orthogonalEdgeStyle;rounded=0;orthogonalLoop=1;jettySize=auto;html=1;exitX=0.5;exitY=0;exitDx=0;exitDy=0;entryX=0.5;entryY=1;entryDx=0;entryDy=0;endArrow=none;endFill=0;" parent="WIyWlLk6GJQsqaUBKTNV-1" source="lWrojG8ZAEGJMrB_fnO6-35" target="lWrojG8ZAEGJMrB_fnO6-30" edge="1">
          <mxGeometry relative="1" as="geometry" />
        </mxCell>
        <mxCell id="Te3saxdoU-nNoS67MwyG-1" style="edgeStyle=orthogonalEdgeStyle;rounded=0;orthogonalLoop=1;jettySize=auto;html=1;exitX=0.25;exitY=1;exitDx=0;exitDy=0;entryX=0;entryY=0.5;entryDx=0;entryDy=0;endArrow=none;endFill=0;" parent="WIyWlLk6GJQsqaUBKTNV-1" source="lWrojG8ZAEGJMrB_fnO6-35" target="Te3saxdoU-nNoS67MwyG-0" edge="1">
          <mxGeometry relative="1" as="geometry" />
        </mxCell>
        <mxCell id="lWrojG8ZAEGJMrB_fnO6-35" value="Quản lý kịch bản thông minh" style="rounded=0;whiteSpace=wrap;html=1;" parent="WIyWlLk6GJQsqaUBKTNV-1" vertex="1">
          <mxGeometry x="970" y="360" width="240" height="60" as="geometry" />
        </mxCell>
        <mxCell id="lWrojG8ZAEGJMrB_fnO6-42" style="edgeStyle=orthogonalEdgeStyle;rounded=0;orthogonalLoop=1;jettySize=auto;html=1;exitX=0.5;exitY=0;exitDx=0;exitDy=0;endArrow=none;endFill=0;" parent="WIyWlLk6GJQsqaUBKTNV-1" source="lWrojG8ZAEGJMrB_fnO6-36" target="lWrojG8ZAEGJMrB_fnO6-30" edge="1">
          <mxGeometry relative="1" as="geometry" />
        </mxCell>
        <mxCell id="lWrojG8ZAEGJMrB_fnO6-36" value="Quản lý thông báo" style="rounded=0;whiteSpace=wrap;html=1;" parent="WIyWlLk6GJQsqaUBKTNV-1" vertex="1">
          <mxGeometry x="1299.94" y="360" width="250.06" height="60" as="geometry" />
        </mxCell>
        <mxCell id="lWrojG8ZAEGJMrB_fnO6-43" value="Đăng nhập" style="rounded=0;whiteSpace=wrap;html=1;" parent="WIyWlLk6GJQsqaUBKTNV-1" vertex="1">
          <mxGeometry x="-180" y="450" width="120" height="60" as="geometry" />
        </mxCell>
        <mxCell id="lWrojG8ZAEGJMrB_fnO6-44" value="Quên mật khẩu" style="rounded=0;whiteSpace=wrap;html=1;" parent="WIyWlLk6GJQsqaUBKTNV-1" vertex="1">
          <mxGeometry x="-180" y="630" width="120" height="60" as="geometry" />
        </mxCell>
        <mxCell id="lWrojG8ZAEGJMrB_fnO6-45" value="Cài đặt tài khoản" style="rounded=0;whiteSpace=wrap;html=1;" parent="WIyWlLk6GJQsqaUBKTNV-1" vertex="1">
          <mxGeometry x="-180" y="720" width="120" height="60" as="geometry" />
        </mxCell>
        <mxCell id="lWrojG8ZAEGJMrB_fnO6-46" value="Cài đặt nhà" style="rounded=0;whiteSpace=wrap;html=1;" parent="WIyWlLk6GJQsqaUBKTNV-1" vertex="1">
          <mxGeometry x="120" y="450" width="120" height="60" as="geometry" />
        </mxCell>
        <mxCell id="lWrojG8ZAEGJMrB_fnO6-66" style="edgeStyle=orthogonalEdgeStyle;rounded=0;orthogonalLoop=1;jettySize=auto;html=1;exitX=0;exitY=0.5;exitDx=0;exitDy=0;endArrow=none;endFill=0;entryX=0.25;entryY=1;entryDx=0;entryDy=0;" parent="WIyWlLk6GJQsqaUBKTNV-1" source="lWrojG8ZAEGJMrB_fnO6-47" target="lWrojG8ZAEGJMrB_fnO6-32" edge="1">
          <mxGeometry relative="1" as="geometry">
            <mxPoint x="170" y="420" as="targetPoint" />
          </mxGeometry>
        </mxCell>
        <mxCell id="lWrojG8ZAEGJMrB_fnO6-47" value="Thêm/xoá nhà" style="rounded=0;whiteSpace=wrap;html=1;" parent="WIyWlLk6GJQsqaUBKTNV-1" vertex="1">
          <mxGeometry x="120" y="540" width="120" height="60" as="geometry" />
        </mxCell>
        <mxCell id="lWrojG8ZAEGJMrB_fnO6-68" style="edgeStyle=orthogonalEdgeStyle;rounded=0;orthogonalLoop=1;jettySize=auto;html=1;exitX=0;exitY=0.5;exitDx=0;exitDy=0;entryX=0.25;entryY=1;entryDx=0;entryDy=0;endArrow=none;endFill=0;" parent="WIyWlLk6GJQsqaUBKTNV-1" source="lWrojG8ZAEGJMrB_fnO6-48" target="lWrojG8ZAEGJMrB_fnO6-32" edge="1">
          <mxGeometry relative="1" as="geometry" />
        </mxCell>
        <mxCell id="lWrojG8ZAEGJMrB_fnO6-48" value="Gia nhập nhà" style="rounded=0;whiteSpace=wrap;html=1;" parent="WIyWlLk6GJQsqaUBKTNV-1" vertex="1">
          <mxGeometry x="120" y="630" width="120" height="60" as="geometry" />
        </mxCell>
        <mxCell id="lWrojG8ZAEGJMrB_fnO6-70" style="edgeStyle=orthogonalEdgeStyle;rounded=0;orthogonalLoop=1;jettySize=auto;html=1;exitX=0;exitY=0.5;exitDx=0;exitDy=0;entryX=0.25;entryY=1;entryDx=0;entryDy=0;endArrow=none;endFill=0;" parent="WIyWlLk6GJQsqaUBKTNV-1" source="lWrojG8ZAEGJMrB_fnO6-49" target="lWrojG8ZAEGJMrB_fnO6-33" edge="1">
          <mxGeometry relative="1" as="geometry" />
        </mxCell>
        <mxCell id="lWrojG8ZAEGJMrB_fnO6-49" value="Thêm/xoá phòng" style="rounded=0;whiteSpace=wrap;html=1;" parent="WIyWlLk6GJQsqaUBKTNV-1" vertex="1">
          <mxGeometry x="414" y="450" width="120" height="60" as="geometry" />
        </mxCell>
        <mxCell id="lWrojG8ZAEGJMrB_fnO6-71" style="edgeStyle=orthogonalEdgeStyle;rounded=0;orthogonalLoop=1;jettySize=auto;html=1;exitX=0;exitY=0.5;exitDx=0;exitDy=0;entryX=0.25;entryY=1;entryDx=0;entryDy=0;endArrow=none;endFill=0;" parent="WIyWlLk6GJQsqaUBKTNV-1" source="lWrojG8ZAEGJMrB_fnO6-50" target="lWrojG8ZAEGJMrB_fnO6-33" edge="1">
          <mxGeometry relative="1" as="geometry" />
        </mxCell>
        <mxCell id="lWrojG8ZAEGJMrB_fnO6-50" value="Thêm/xoá thiết bị vào phòng" style="rounded=0;whiteSpace=wrap;html=1;" parent="WIyWlLk6GJQsqaUBKTNV-1" vertex="1">
          <mxGeometry x="414" y="630" width="120" height="60" as="geometry" />
        </mxCell>
        <mxCell id="lWrojG8ZAEGJMrB_fnO6-72" style="edgeStyle=orthogonalEdgeStyle;rounded=0;orthogonalLoop=1;jettySize=auto;html=1;exitX=0;exitY=0.5;exitDx=0;exitDy=0;entryX=0.25;entryY=1;entryDx=0;entryDy=0;endArrow=none;endFill=0;" parent="WIyWlLk6GJQsqaUBKTNV-1" source="lWrojG8ZAEGJMrB_fnO6-51" target="lWrojG8ZAEGJMrB_fnO6-33" edge="1">
          <mxGeometry relative="1" as="geometry" />
        </mxCell>
        <mxCell id="lWrojG8ZAEGJMrB_fnO6-51" value="Sắp xếp thứ tự phòng" style="rounded=0;whiteSpace=wrap;html=1;" parent="WIyWlLk6GJQsqaUBKTNV-1" vertex="1">
          <mxGeometry x="414" y="720" width="120" height="60" as="geometry" />
        </mxCell>
        <mxCell id="lWrojG8ZAEGJMrB_fnO6-75" style="edgeStyle=orthogonalEdgeStyle;rounded=0;orthogonalLoop=1;jettySize=auto;html=1;exitX=0;exitY=0.5;exitDx=0;exitDy=0;entryX=0.25;entryY=1;entryDx=0;entryDy=0;endArrow=none;endFill=0;" parent="WIyWlLk6GJQsqaUBKTNV-1" source="lWrojG8ZAEGJMrB_fnO6-52" target="lWrojG8ZAEGJMrB_fnO6-34" edge="1">
          <mxGeometry relative="1" as="geometry" />
        </mxCell>
        <mxCell id="lWrojG8ZAEGJMrB_fnO6-52" value="Thêm/xoá thiết bị" style="rounded=0;whiteSpace=wrap;html=1;" parent="WIyWlLk6GJQsqaUBKTNV-1" vertex="1">
          <mxGeometry x="730" y="450" width="120" height="60" as="geometry" />
        </mxCell>
        <mxCell id="lWrojG8ZAEGJMrB_fnO6-74" style="edgeStyle=orthogonalEdgeStyle;rounded=0;orthogonalLoop=1;jettySize=auto;html=1;exitX=0;exitY=0.5;exitDx=0;exitDy=0;entryX=0.25;entryY=1;entryDx=0;entryDy=0;endArrow=none;endFill=0;" parent="WIyWlLk6GJQsqaUBKTNV-1" source="lWrojG8ZAEGJMrB_fnO6-53" target="lWrojG8ZAEGJMrB_fnO6-34" edge="1">
          <mxGeometry relative="1" as="geometry" />
        </mxCell>
        <mxCell id="lWrojG8ZAEGJMrB_fnO6-53" value="Điều khiển thiết bị" style="rounded=0;whiteSpace=wrap;html=1;" parent="WIyWlLk6GJQsqaUBKTNV-1" vertex="1">
          <mxGeometry x="730" y="540" width="120" height="60" as="geometry" />
        </mxCell>
        <mxCell id="lWrojG8ZAEGJMrB_fnO6-73" style="edgeStyle=orthogonalEdgeStyle;rounded=0;orthogonalLoop=1;jettySize=auto;html=1;exitX=0;exitY=0.5;exitDx=0;exitDy=0;entryX=0.25;entryY=1;entryDx=0;entryDy=0;endArrow=none;endFill=0;" parent="WIyWlLk6GJQsqaUBKTNV-1" source="lWrojG8ZAEGJMrB_fnO6-54" target="lWrojG8ZAEGJMrB_fnO6-34" edge="1">
          <mxGeometry relative="1" as="geometry" />
        </mxCell>
        <mxCell id="lWrojG8ZAEGJMrB_fnO6-54" value="Cài đặt thiết bị" style="rounded=0;whiteSpace=wrap;html=1;" parent="WIyWlLk6GJQsqaUBKTNV-1" vertex="1">
          <mxGeometry x="730" y="630" width="120" height="60" as="geometry" />
        </mxCell>
        <mxCell id="lWrojG8ZAEGJMrB_fnO6-77" style="edgeStyle=orthogonalEdgeStyle;rounded=0;orthogonalLoop=1;jettySize=auto;html=1;exitX=0;exitY=0.5;exitDx=0;exitDy=0;entryX=0.25;entryY=1;entryDx=0;entryDy=0;endArrow=none;endFill=0;" parent="WIyWlLk6GJQsqaUBKTNV-1" source="lWrojG8ZAEGJMrB_fnO6-55" target="lWrojG8ZAEGJMrB_fnO6-35" edge="1">
          <mxGeometry relative="1" as="geometry" />
        </mxCell>
        <mxCell id="lWrojG8ZAEGJMrB_fnO6-55" value="Phân loại kịch bản" style="rounded=0;whiteSpace=wrap;html=1;" parent="WIyWlLk6GJQsqaUBKTNV-1" vertex="1">
          <mxGeometry x="1050" y="450" width="120" height="60" as="geometry" />
        </mxCell>
        <mxCell id="lWrojG8ZAEGJMrB_fnO6-78" style="edgeStyle=orthogonalEdgeStyle;rounded=0;orthogonalLoop=1;jettySize=auto;html=1;exitX=0;exitY=0.5;exitDx=0;exitDy=0;entryX=0.25;entryY=1;entryDx=0;entryDy=0;endArrow=none;endFill=0;" parent="WIyWlLk6GJQsqaUBKTNV-1" source="lWrojG8ZAEGJMrB_fnO6-56" target="lWrojG8ZAEGJMrB_fnO6-35" edge="1">
          <mxGeometry relative="1" as="geometry" />
        </mxCell>
        <mxCell id="lWrojG8ZAEGJMrB_fnO6-56" value="Cài đặt kịch bản" style="rounded=0;whiteSpace=wrap;html=1;" parent="WIyWlLk6GJQsqaUBKTNV-1" vertex="1">
          <mxGeometry x="1050" y="540" width="120" height="60" as="geometry" />
        </mxCell>
        <mxCell id="lWrojG8ZAEGJMrB_fnO6-80" style="edgeStyle=orthogonalEdgeStyle;rounded=0;orthogonalLoop=1;jettySize=auto;html=1;exitX=0;exitY=0.5;exitDx=0;exitDy=0;entryX=0.25;entryY=1;entryDx=0;entryDy=0;endArrow=none;endFill=0;" parent="WIyWlLk6GJQsqaUBKTNV-1" source="lWrojG8ZAEGJMrB_fnO6-58" target="lWrojG8ZAEGJMrB_fnO6-36" edge="1">
          <mxGeometry relative="1" as="geometry" />
        </mxCell>
        <mxCell id="lWrojG8ZAEGJMrB_fnO6-58" value="Gửi thông báo" style="rounded=0;whiteSpace=wrap;html=1;" parent="WIyWlLk6GJQsqaUBKTNV-1" vertex="1">
          <mxGeometry x="1390" y="450" width="120" height="60" as="geometry" />
        </mxCell>
        <mxCell id="lWrojG8ZAEGJMrB_fnO6-81" style="edgeStyle=orthogonalEdgeStyle;rounded=0;orthogonalLoop=1;jettySize=auto;html=1;exitX=0;exitY=0.5;exitDx=0;exitDy=0;entryX=0.25;entryY=1;entryDx=0;entryDy=0;endArrow=none;endFill=0;" parent="WIyWlLk6GJQsqaUBKTNV-1" source="lWrojG8ZAEGJMrB_fnO6-59" target="lWrojG8ZAEGJMrB_fnO6-36" edge="1">
          <mxGeometry relative="1" as="geometry" />
        </mxCell>
        <mxCell id="lWrojG8ZAEGJMrB_fnO6-59" value="Xoá thông báo" style="rounded=0;whiteSpace=wrap;html=1;" parent="WIyWlLk6GJQsqaUBKTNV-1" vertex="1">
          <mxGeometry x="1390" y="540" width="120" height="60" as="geometry" />
        </mxCell>
        <mxCell id="lWrojG8ZAEGJMrB_fnO6-82" style="edgeStyle=orthogonalEdgeStyle;rounded=0;orthogonalLoop=1;jettySize=auto;html=1;exitX=0;exitY=0.5;exitDx=0;exitDy=0;entryX=0.25;entryY=1;entryDx=0;entryDy=0;endArrow=none;endFill=0;" parent="WIyWlLk6GJQsqaUBKTNV-1" source="lWrojG8ZAEGJMrB_fnO6-60" target="lWrojG8ZAEGJMrB_fnO6-36" edge="1">
          <mxGeometry relative="1" as="geometry" />
        </mxCell>
        <mxCell id="lWrojG8ZAEGJMrB_fnO6-60" value="Phân loại thông báo" style="rounded=0;whiteSpace=wrap;html=1;" parent="WIyWlLk6GJQsqaUBKTNV-1" vertex="1">
          <mxGeometry x="1390" y="630" width="120" height="60" as="geometry" />
        </mxCell>
        <mxCell id="lWrojG8ZAEGJMrB_fnO6-76" style="edgeStyle=orthogonalEdgeStyle;rounded=0;orthogonalLoop=1;jettySize=auto;html=1;exitX=0;exitY=0.5;exitDx=0;exitDy=0;entryX=0.25;entryY=1;entryDx=0;entryDy=0;endArrow=none;endFill=0;" parent="WIyWlLk6GJQsqaUBKTNV-1" source="lWrojG8ZAEGJMrB_fnO6-64" target="lWrojG8ZAEGJMrB_fnO6-34" edge="1">
          <mxGeometry relative="1" as="geometry" />
        </mxCell>
        <mxCell id="lWrojG8ZAEGJMrB_fnO6-64" value="Tiện ích" style="rounded=0;whiteSpace=wrap;html=1;" parent="WIyWlLk6GJQsqaUBKTNV-1" vertex="1">
          <mxGeometry x="730" y="720" width="120" height="60" as="geometry" />
        </mxCell>
        <mxCell id="REANl_uHcf_742eDeE6I-0" value="Cài đặt phòng" style="rounded=0;whiteSpace=wrap;html=1;" parent="WIyWlLk6GJQsqaUBKTNV-1" vertex="1">
          <mxGeometry x="414" y="540" width="120" height="60" as="geometry" />
        </mxCell>
        <mxCell id="Te3saxdoU-nNoS67MwyG-0" value="Thêm/xoá kịch bản" style="rounded=0;whiteSpace=wrap;html=1;" parent="WIyWlLk6GJQsqaUBKTNV-1" vertex="1">
          <mxGeometry x="1050" y="630" width="120" height="60" as="geometry" />
        </mxCell>
        <mxCell id="ZnI_OXmdWYOGaNleJEPG-0" value="Đăng ký" style="rounded=0;whiteSpace=wrap;html=1;" parent="WIyWlLk6GJQsqaUBKTNV-1" vertex="1">
          <mxGeometry x="-180" y="540" width="120" height="60" as="geometry" />
        </mxCell>
      </root>
    </mxGraphModel>
  </diagram>
  <diagram id="sO-K0KeNw8wq4QjqhWYh" name="FDD-Hệ quản lý thiết bị">
    <mxGraphModel dx="2276" dy="747" grid="1" gridSize="10" guides="1" tooltips="1" connect="1" arrows="1" fold="1" page="1" pageScale="1" pageWidth="850" pageHeight="1100" math="0" shadow="0">
      <root>
        <mxCell id="0" />
        <mxCell id="1" parent="0" />
        <mxCell id="TTfGzbpT7r4LJY1bJnti-1" style="edgeStyle=orthogonalEdgeStyle;rounded=0;orthogonalLoop=1;jettySize=auto;html=1;exitX=0.5;exitY=1;exitDx=0;exitDy=0;entryX=0.5;entryY=0;entryDx=0;entryDy=0;endArrow=none;endFill=0;" edge="1" parent="1" source="TTfGzbpT7r4LJY1bJnti-2" target="TTfGzbpT7r4LJY1bJnti-6">
          <mxGeometry relative="1" as="geometry" />
        </mxCell>
        <mxCell id="TTfGzbpT7r4LJY1bJnti-2" value="Hệ quản lý thiết bị" style="rounded=0;whiteSpace=wrap;html=1;" vertex="1" parent="1">
          <mxGeometry x="260.00000000000006" y="140" width="120" height="60" as="geometry" />
        </mxCell>
        <mxCell id="TTfGzbpT7r4LJY1bJnti-6" value="Thêm/xoá thiết bị" style="rounded=0;whiteSpace=wrap;html=1;" vertex="1" parent="1">
          <mxGeometry x="-260" y="360" width="230" height="60" as="geometry" />
        </mxCell>
        <mxCell id="TTfGzbpT7r4LJY1bJnti-7" style="edgeStyle=orthogonalEdgeStyle;rounded=0;orthogonalLoop=1;jettySize=auto;html=1;exitX=0.5;exitY=0;exitDx=0;exitDy=0;entryX=0.5;entryY=1;entryDx=0;entryDy=0;endArrow=none;endFill=0;" edge="1" parent="1" source="TTfGzbpT7r4LJY1bJnti-9" target="TTfGzbpT7r4LJY1bJnti-2">
          <mxGeometry relative="1" as="geometry" />
        </mxCell>
        <mxCell id="TTfGzbpT7r4LJY1bJnti-9" value="Điều khiển thiết bị" style="rounded=0;whiteSpace=wrap;html=1;" vertex="1" parent="1">
          <mxGeometry x="40" y="360" width="220" height="60" as="geometry" />
        </mxCell>
        <mxCell id="TTfGzbpT7r4LJY1bJnti-10" style="edgeStyle=orthogonalEdgeStyle;rounded=0;orthogonalLoop=1;jettySize=auto;html=1;exitX=0.5;exitY=0;exitDx=0;exitDy=0;endArrow=none;endFill=0;entryX=0.5;entryY=1;entryDx=0;entryDy=0;" edge="1" parent="1" source="TTfGzbpT7r4LJY1bJnti-11" target="TTfGzbpT7r4LJY1bJnti-2">
          <mxGeometry relative="1" as="geometry">
            <mxPoint x="460" y="270" as="targetPoint" />
          </mxGeometry>
        </mxCell>
        <mxCell id="-Q9a-ElH-PzE8bRXEluL-4" style="edgeStyle=orthogonalEdgeStyle;rounded=0;orthogonalLoop=1;jettySize=auto;html=1;exitX=0.25;exitY=1;exitDx=0;exitDy=0;entryX=0;entryY=0.5;entryDx=0;entryDy=0;endArrow=none;endFill=0;" edge="1" parent="1" source="TTfGzbpT7r4LJY1bJnti-11" target="-Q9a-ElH-PzE8bRXEluL-1">
          <mxGeometry relative="1" as="geometry" />
        </mxCell>
        <mxCell id="TTfGzbpT7r4LJY1bJnti-11" value="Cài đặt thiết bị" style="rounded=0;whiteSpace=wrap;html=1;" vertex="1" parent="1">
          <mxGeometry x="330" y="360" width="230" height="60" as="geometry" />
        </mxCell>
        <mxCell id="TTfGzbpT7r4LJY1bJnti-12" style="edgeStyle=orthogonalEdgeStyle;rounded=0;orthogonalLoop=1;jettySize=auto;html=1;exitX=0.5;exitY=0;exitDx=0;exitDy=0;endArrow=none;endFill=0;entryX=0.5;entryY=1;entryDx=0;entryDy=0;" edge="1" parent="1" source="TTfGzbpT7r4LJY1bJnti-13" target="TTfGzbpT7r4LJY1bJnti-2">
          <mxGeometry relative="1" as="geometry">
            <mxPoint x="460" y="270" as="targetPoint" />
          </mxGeometry>
        </mxCell>
        <mxCell id="TTfGzbpT7r4LJY1bJnti-13" value="Tiện ích" style="rounded=0;whiteSpace=wrap;html=1;" vertex="1" parent="1">
          <mxGeometry x="639.94" y="360" width="250.06" height="60" as="geometry" />
        </mxCell>
        <mxCell id="TTfGzbpT7r4LJY1bJnti-26" style="edgeStyle=orthogonalEdgeStyle;rounded=0;orthogonalLoop=1;jettySize=auto;html=1;exitX=0;exitY=0.5;exitDx=0;exitDy=0;entryX=0.25;entryY=1;entryDx=0;entryDy=0;endArrow=none;endFill=0;" edge="1" parent="1" source="TTfGzbpT7r4LJY1bJnti-27" target="TTfGzbpT7r4LJY1bJnti-11">
          <mxGeometry relative="1" as="geometry" />
        </mxCell>
        <mxCell id="TTfGzbpT7r4LJY1bJnti-27" value="Thay đổi thông tin thiết bị" style="rounded=0;whiteSpace=wrap;html=1;" vertex="1" parent="1">
          <mxGeometry x="414" y="450" width="120" height="60" as="geometry" />
        </mxCell>
        <mxCell id="TTfGzbpT7r4LJY1bJnti-28" style="edgeStyle=orthogonalEdgeStyle;rounded=0;orthogonalLoop=1;jettySize=auto;html=1;exitX=0;exitY=0.5;exitDx=0;exitDy=0;entryX=0.25;entryY=1;entryDx=0;entryDy=0;endArrow=none;endFill=0;" edge="1" parent="1" source="TTfGzbpT7r4LJY1bJnti-29" target="TTfGzbpT7r4LJY1bJnti-11">
          <mxGeometry relative="1" as="geometry" />
        </mxCell>
        <mxCell id="TTfGzbpT7r4LJY1bJnti-29" value="Tạo nhóm thiết bị" style="rounded=0;whiteSpace=wrap;html=1;" vertex="1" parent="1">
          <mxGeometry x="414" y="540" width="120" height="60" as="geometry" />
        </mxCell>
        <mxCell id="TTfGzbpT7r4LJY1bJnti-30" style="edgeStyle=orthogonalEdgeStyle;rounded=0;orthogonalLoop=1;jettySize=auto;html=1;exitX=0;exitY=0.5;exitDx=0;exitDy=0;entryX=0.25;entryY=1;entryDx=0;entryDy=0;endArrow=none;endFill=0;" edge="1" parent="1" source="TTfGzbpT7r4LJY1bJnti-31" target="TTfGzbpT7r4LJY1bJnti-11">
          <mxGeometry relative="1" as="geometry" />
        </mxCell>
        <mxCell id="TTfGzbpT7r4LJY1bJnti-31" value="Chia sẻ thiết bị" style="rounded=0;whiteSpace=wrap;html=1;" vertex="1" parent="1">
          <mxGeometry x="414" y="630" width="120" height="60" as="geometry" />
        </mxCell>
        <mxCell id="TTfGzbpT7r4LJY1bJnti-32" style="edgeStyle=orthogonalEdgeStyle;rounded=0;orthogonalLoop=1;jettySize=auto;html=1;exitX=0;exitY=0.5;exitDx=0;exitDy=0;entryX=0.25;entryY=1;entryDx=0;entryDy=0;endArrow=none;endFill=0;" edge="1" parent="1" source="TTfGzbpT7r4LJY1bJnti-33" target="TTfGzbpT7r4LJY1bJnti-13">
          <mxGeometry relative="1" as="geometry" />
        </mxCell>
        <mxCell id="TTfGzbpT7r4LJY1bJnti-33" value="Sắp xếp thứ tự" style="rounded=0;whiteSpace=wrap;html=1;" vertex="1" parent="1">
          <mxGeometry x="730" y="450" width="120" height="60" as="geometry" />
        </mxCell>
        <mxCell id="TTfGzbpT7r4LJY1bJnti-34" style="edgeStyle=orthogonalEdgeStyle;rounded=0;orthogonalLoop=1;jettySize=auto;html=1;exitX=0;exitY=0.5;exitDx=0;exitDy=0;entryX=0.25;entryY=1;entryDx=0;entryDy=0;endArrow=none;endFill=0;" edge="1" parent="1" source="TTfGzbpT7r4LJY1bJnti-35" target="TTfGzbpT7r4LJY1bJnti-13">
          <mxGeometry relative="1" as="geometry" />
        </mxCell>
        <mxCell id="TTfGzbpT7r4LJY1bJnti-35" value="Ẩn thiết bị" style="rounded=0;whiteSpace=wrap;html=1;" vertex="1" parent="1">
          <mxGeometry x="730" y="540" width="120" height="60" as="geometry" />
        </mxCell>
        <mxCell id="TTfGzbpT7r4LJY1bJnti-36" style="edgeStyle=orthogonalEdgeStyle;rounded=0;orthogonalLoop=1;jettySize=auto;html=1;exitX=0;exitY=0.5;exitDx=0;exitDy=0;entryX=0.25;entryY=1;entryDx=0;entryDy=0;endArrow=none;endFill=0;" edge="1" parent="1" source="TTfGzbpT7r4LJY1bJnti-37" target="TTfGzbpT7r4LJY1bJnti-13">
          <mxGeometry relative="1" as="geometry" />
        </mxCell>
        <mxCell id="TTfGzbpT7r4LJY1bJnti-37" value="Thay đổi phòng" style="rounded=0;whiteSpace=wrap;html=1;" vertex="1" parent="1">
          <mxGeometry x="730" y="630" width="120" height="60" as="geometry" />
        </mxCell>
        <mxCell id="-Q9a-ElH-PzE8bRXEluL-1" value="Kiểm tra firmware" style="rounded=0;whiteSpace=wrap;html=1;" vertex="1" parent="1">
          <mxGeometry x="414" y="720" width="120" height="60" as="geometry" />
        </mxCell>
      </root>
    </mxGraphModel>
  </diagram>
  <diagram id="H-hpBVWJpIlun_kSz33G" name="FDD-Hệ quản lý tài khoản">
    <mxGraphModel dx="2528" dy="879" grid="1" gridSize="10" guides="1" tooltips="1" connect="1" arrows="1" fold="1" page="1" pageScale="1" pageWidth="850" pageHeight="1100" math="0" shadow="0">
      <root>
        <mxCell id="0" />
        <mxCell id="1" parent="0" />
        <mxCell id="-gc29FD_vJq3-cKBbNCl-1" style="edgeStyle=orthogonalEdgeStyle;rounded=0;orthogonalLoop=1;jettySize=auto;html=1;exitX=0.5;exitY=1;exitDx=0;exitDy=0;entryX=0.5;entryY=0;entryDx=0;entryDy=0;endArrow=none;endFill=0;" parent="1" source="-gc29FD_vJq3-cKBbNCl-2" target="-gc29FD_vJq3-cKBbNCl-6" edge="1">
          <mxGeometry relative="1" as="geometry" />
        </mxCell>
        <mxCell id="7w7d7GvehhrzDQ985-FP-2" style="edgeStyle=orthogonalEdgeStyle;rounded=0;orthogonalLoop=1;jettySize=auto;html=1;exitX=0.5;exitY=1;exitDx=0;exitDy=0;endArrow=none;endFill=0;" edge="1" parent="1" source="-gc29FD_vJq3-cKBbNCl-2" target="7w7d7GvehhrzDQ985-FP-1">
          <mxGeometry relative="1" as="geometry" />
        </mxCell>
        <mxCell id="-gc29FD_vJq3-cKBbNCl-2" value="Hệ quản lý tài khoản" style="rounded=0;whiteSpace=wrap;html=1;" parent="1" vertex="1">
          <mxGeometry x="-59.99999999999994" y="140" width="120" height="60" as="geometry" />
        </mxCell>
        <mxCell id="-gc29FD_vJq3-cKBbNCl-6" value="Đăng ký" style="rounded=0;whiteSpace=wrap;html=1;" parent="1" vertex="1">
          <mxGeometry x="-260" y="360" width="230" height="60" as="geometry" />
        </mxCell>
        <mxCell id="-gc29FD_vJq3-cKBbNCl-7" style="edgeStyle=orthogonalEdgeStyle;rounded=0;orthogonalLoop=1;jettySize=auto;html=1;exitX=0.5;exitY=0;exitDx=0;exitDy=0;entryX=0.5;entryY=1;entryDx=0;entryDy=0;endArrow=none;endFill=0;" parent="1" source="-gc29FD_vJq3-cKBbNCl-9" target="-gc29FD_vJq3-cKBbNCl-2" edge="1">
          <mxGeometry relative="1" as="geometry" />
        </mxCell>
        <mxCell id="-gc29FD_vJq3-cKBbNCl-9" value="Quên mật khẩu" style="rounded=0;whiteSpace=wrap;html=1;" parent="1" vertex="1">
          <mxGeometry x="40" y="360" width="220" height="60" as="geometry" />
        </mxCell>
        <mxCell id="-gc29FD_vJq3-cKBbNCl-10" style="edgeStyle=orthogonalEdgeStyle;rounded=0;orthogonalLoop=1;jettySize=auto;html=1;exitX=0.5;exitY=0;exitDx=0;exitDy=0;endArrow=none;endFill=0;entryX=0.5;entryY=1;entryDx=0;entryDy=0;" parent="1" source="-gc29FD_vJq3-cKBbNCl-11" target="-gc29FD_vJq3-cKBbNCl-2" edge="1">
          <mxGeometry relative="1" as="geometry">
            <mxPoint x="460" y="270" as="targetPoint" />
          </mxGeometry>
        </mxCell>
        <mxCell id="-gc29FD_vJq3-cKBbNCl-11" value="Cài đặt tài khoản" style="rounded=0;whiteSpace=wrap;html=1;" parent="1" vertex="1">
          <mxGeometry x="330" y="360" width="230" height="60" as="geometry" />
        </mxCell>
        <mxCell id="-gc29FD_vJq3-cKBbNCl-26" style="edgeStyle=orthogonalEdgeStyle;rounded=0;orthogonalLoop=1;jettySize=auto;html=1;exitX=0;exitY=0.5;exitDx=0;exitDy=0;entryX=0.25;entryY=1;entryDx=0;entryDy=0;endArrow=none;endFill=0;" parent="1" source="-gc29FD_vJq3-cKBbNCl-27" target="-gc29FD_vJq3-cKBbNCl-11" edge="1">
          <mxGeometry relative="1" as="geometry" />
        </mxCell>
        <mxCell id="-gc29FD_vJq3-cKBbNCl-27" value="Thay đổi thông tin cá nhân" style="rounded=0;whiteSpace=wrap;html=1;" parent="1" vertex="1">
          <mxGeometry x="414" y="450" width="120" height="60" as="geometry" />
        </mxCell>
        <mxCell id="-gc29FD_vJq3-cKBbNCl-28" style="edgeStyle=orthogonalEdgeStyle;rounded=0;orthogonalLoop=1;jettySize=auto;html=1;exitX=0;exitY=0.5;exitDx=0;exitDy=0;entryX=0.25;entryY=1;entryDx=0;entryDy=0;endArrow=none;endFill=0;" parent="1" source="-gc29FD_vJq3-cKBbNCl-29" target="-gc29FD_vJq3-cKBbNCl-11" edge="1">
          <mxGeometry relative="1" as="geometry" />
        </mxCell>
        <mxCell id="-gc29FD_vJq3-cKBbNCl-29" value="Bảo mật tài khoản" style="rounded=0;whiteSpace=wrap;html=1;" parent="1" vertex="1">
          <mxGeometry x="414" y="540" width="120" height="60" as="geometry" />
        </mxCell>
        <mxCell id="Vs8a_Mkd5uT02wZ5QY8x-1" value="Xoá tài khoản" style="rounded=0;whiteSpace=wrap;html=1;" vertex="1" parent="1">
          <mxGeometry x="414" y="630" width="120" height="60" as="geometry" />
        </mxCell>
        <mxCell id="Vs8a_Mkd5uT02wZ5QY8x-2" style="edgeStyle=orthogonalEdgeStyle;rounded=0;orthogonalLoop=1;jettySize=auto;html=1;exitX=0.25;exitY=1;exitDx=0;exitDy=0;entryX=0.008;entryY=0.617;entryDx=0;entryDy=0;entryPerimeter=0;endArrow=none;endFill=0;" edge="1" parent="1" source="-gc29FD_vJq3-cKBbNCl-11" target="Vs8a_Mkd5uT02wZ5QY8x-1">
          <mxGeometry relative="1" as="geometry" />
        </mxCell>
        <mxCell id="7w7d7GvehhrzDQ985-FP-1" value="Đăng nhập" style="rounded=0;whiteSpace=wrap;html=1;" vertex="1" parent="1">
          <mxGeometry x="-560" y="360" width="230" height="60" as="geometry" />
        </mxCell>
      </root>
    </mxGraphModel>
  </diagram>
  <diagram id="JzXk5hqZ91VwFbSrjNVn" name="FDD-Hệ quản lý nhà">
    <mxGraphModel dx="2284" dy="744" grid="1" gridSize="10" guides="1" tooltips="1" connect="1" arrows="1" fold="1" page="1" pageScale="1" pageWidth="850" pageHeight="1100" math="0" shadow="0">
      <root>
        <mxCell id="0" />
        <mxCell id="1" parent="0" />
        <mxCell id="IKjWGnQQqSoXa8pHSr6o-1" style="edgeStyle=orthogonalEdgeStyle;rounded=0;orthogonalLoop=1;jettySize=auto;html=1;exitX=0.5;exitY=1;exitDx=0;exitDy=0;entryX=0.5;entryY=0;entryDx=0;entryDy=0;endArrow=none;endFill=0;" parent="1" source="IKjWGnQQqSoXa8pHSr6o-2" target="IKjWGnQQqSoXa8pHSr6o-3" edge="1">
          <mxGeometry relative="1" as="geometry" />
        </mxCell>
        <mxCell id="IKjWGnQQqSoXa8pHSr6o-2" value="Hệ quản lý nhà" style="rounded=0;whiteSpace=wrap;html=1;" parent="1" vertex="1">
          <mxGeometry x="90.00000000000006" y="130" width="120" height="60" as="geometry" />
        </mxCell>
        <mxCell id="IKjWGnQQqSoXa8pHSr6o-3" value="Thêm/xoá nhà" style="rounded=0;whiteSpace=wrap;html=1;" parent="1" vertex="1">
          <mxGeometry x="-260" y="360" width="230" height="60" as="geometry" />
        </mxCell>
        <mxCell id="IKjWGnQQqSoXa8pHSr6o-4" style="edgeStyle=orthogonalEdgeStyle;rounded=0;orthogonalLoop=1;jettySize=auto;html=1;exitX=0.5;exitY=0;exitDx=0;exitDy=0;entryX=0.5;entryY=1;entryDx=0;entryDy=0;endArrow=none;endFill=0;" parent="1" source="IKjWGnQQqSoXa8pHSr6o-5" target="IKjWGnQQqSoXa8pHSr6o-2" edge="1">
          <mxGeometry relative="1" as="geometry" />
        </mxCell>
        <mxCell id="IKjWGnQQqSoXa8pHSr6o-5" value="Gia nhập nhà" style="rounded=0;whiteSpace=wrap;html=1;" parent="1" vertex="1">
          <mxGeometry x="40" y="360" width="220" height="60" as="geometry" />
        </mxCell>
        <mxCell id="IKjWGnQQqSoXa8pHSr6o-6" style="edgeStyle=orthogonalEdgeStyle;rounded=0;orthogonalLoop=1;jettySize=auto;html=1;exitX=0.5;exitY=0;exitDx=0;exitDy=0;endArrow=none;endFill=0;entryX=0.5;entryY=1;entryDx=0;entryDy=0;" parent="1" source="IKjWGnQQqSoXa8pHSr6o-8" target="IKjWGnQQqSoXa8pHSr6o-2" edge="1">
          <mxGeometry relative="1" as="geometry">
            <mxPoint x="460" y="270" as="targetPoint" />
          </mxGeometry>
        </mxCell>
        <mxCell id="IKjWGnQQqSoXa8pHSr6o-7" style="edgeStyle=orthogonalEdgeStyle;rounded=0;orthogonalLoop=1;jettySize=auto;html=1;exitX=0.25;exitY=1;exitDx=0;exitDy=0;entryX=0;entryY=0.5;entryDx=0;entryDy=0;endArrow=none;endFill=0;" parent="1" source="IKjWGnQQqSoXa8pHSr6o-8" target="IKjWGnQQqSoXa8pHSr6o-23" edge="1">
          <mxGeometry relative="1" as="geometry" />
        </mxCell>
        <mxCell id="IKjWGnQQqSoXa8pHSr6o-8" value="Cài đặt nhà" style="rounded=0;whiteSpace=wrap;html=1;" parent="1" vertex="1">
          <mxGeometry x="330" y="360" width="230" height="60" as="geometry" />
        </mxCell>
        <mxCell id="IKjWGnQQqSoXa8pHSr6o-11" style="edgeStyle=orthogonalEdgeStyle;rounded=0;orthogonalLoop=1;jettySize=auto;html=1;exitX=0;exitY=0.5;exitDx=0;exitDy=0;entryX=0.25;entryY=1;entryDx=0;entryDy=0;endArrow=none;endFill=0;" parent="1" source="IKjWGnQQqSoXa8pHSr6o-12" target="IKjWGnQQqSoXa8pHSr6o-8" edge="1">
          <mxGeometry relative="1" as="geometry" />
        </mxCell>
        <mxCell id="IKjWGnQQqSoXa8pHSr6o-12" value="Thay đổi thông tin nhà" style="rounded=0;whiteSpace=wrap;html=1;" parent="1" vertex="1">
          <mxGeometry x="414" y="450" width="120" height="60" as="geometry" />
        </mxCell>
        <mxCell id="IKjWGnQQqSoXa8pHSr6o-15" style="edgeStyle=orthogonalEdgeStyle;rounded=0;orthogonalLoop=1;jettySize=auto;html=1;exitX=0;exitY=0.5;exitDx=0;exitDy=0;entryX=0.25;entryY=1;entryDx=0;entryDy=0;endArrow=none;endFill=0;" parent="1" source="IKjWGnQQqSoXa8pHSr6o-16" target="IKjWGnQQqSoXa8pHSr6o-8" edge="1">
          <mxGeometry relative="1" as="geometry" />
        </mxCell>
        <mxCell id="IKjWGnQQqSoXa8pHSr6o-16" value="Thêm/xoá thành viên" style="rounded=0;whiteSpace=wrap;html=1;" parent="1" vertex="1">
          <mxGeometry x="414" y="540" width="120" height="60" as="geometry" />
        </mxCell>
        <mxCell id="IKjWGnQQqSoXa8pHSr6o-23" value="Chuyển quyền sở hữu nhà" style="rounded=0;whiteSpace=wrap;html=1;" parent="1" vertex="1">
          <mxGeometry x="414" y="630" width="120" height="60" as="geometry" />
        </mxCell>
      </root>
    </mxGraphModel>
  </diagram>
  <diagram id="dhtSSt05pj1a69cGfj6c" name="FDD-Hệ quản lý phòng">
    <mxGraphModel dx="2276" dy="747" grid="1" gridSize="10" guides="1" tooltips="1" connect="1" arrows="1" fold="1" page="1" pageScale="1" pageWidth="850" pageHeight="1100" math="0" shadow="0">
      <root>
        <mxCell id="0" />
        <mxCell id="1" parent="0" />
        <mxCell id="BV4Ng3nlLF1PLUaiVpaY-1" style="edgeStyle=orthogonalEdgeStyle;rounded=0;orthogonalLoop=1;jettySize=auto;html=1;exitX=0.5;exitY=1;exitDx=0;exitDy=0;entryX=0.5;entryY=0;entryDx=0;entryDy=0;endArrow=none;endFill=0;" edge="1" parent="1" source="BV4Ng3nlLF1PLUaiVpaY-2" target="BV4Ng3nlLF1PLUaiVpaY-3">
          <mxGeometry relative="1" as="geometry" />
        </mxCell>
        <mxCell id="BV4Ng3nlLF1PLUaiVpaY-2" value="Hệ quản lý phòng" style="rounded=0;whiteSpace=wrap;html=1;" vertex="1" parent="1">
          <mxGeometry x="260.00000000000006" y="140" width="120" height="60" as="geometry" />
        </mxCell>
        <mxCell id="BV4Ng3nlLF1PLUaiVpaY-3" value="Thêm/xoá phòng" style="rounded=0;whiteSpace=wrap;html=1;" vertex="1" parent="1">
          <mxGeometry x="-260" y="360" width="230" height="60" as="geometry" />
        </mxCell>
        <mxCell id="BV4Ng3nlLF1PLUaiVpaY-4" style="edgeStyle=orthogonalEdgeStyle;rounded=0;orthogonalLoop=1;jettySize=auto;html=1;exitX=0.5;exitY=0;exitDx=0;exitDy=0;entryX=0.5;entryY=1;entryDx=0;entryDy=0;endArrow=none;endFill=0;" edge="1" parent="1" source="BV4Ng3nlLF1PLUaiVpaY-5" target="BV4Ng3nlLF1PLUaiVpaY-2">
          <mxGeometry relative="1" as="geometry" />
        </mxCell>
        <mxCell id="BV4Ng3nlLF1PLUaiVpaY-5" value="Thêm/xoá thiết bị trong phòng" style="rounded=0;whiteSpace=wrap;html=1;" vertex="1" parent="1">
          <mxGeometry x="40" y="360" width="220" height="60" as="geometry" />
        </mxCell>
        <mxCell id="BV4Ng3nlLF1PLUaiVpaY-6" style="edgeStyle=orthogonalEdgeStyle;rounded=0;orthogonalLoop=1;jettySize=auto;html=1;exitX=0.5;exitY=0;exitDx=0;exitDy=0;endArrow=none;endFill=0;entryX=0.5;entryY=1;entryDx=0;entryDy=0;" edge="1" parent="1" source="BV4Ng3nlLF1PLUaiVpaY-8" target="BV4Ng3nlLF1PLUaiVpaY-2">
          <mxGeometry relative="1" as="geometry">
            <mxPoint x="460" y="270" as="targetPoint" />
          </mxGeometry>
        </mxCell>
        <mxCell id="BV4Ng3nlLF1PLUaiVpaY-8" value="Cài đặt phòng" style="rounded=0;whiteSpace=wrap;html=1;" vertex="1" parent="1">
          <mxGeometry x="330" y="360" width="230" height="60" as="geometry" />
        </mxCell>
        <mxCell id="BV4Ng3nlLF1PLUaiVpaY-9" style="edgeStyle=orthogonalEdgeStyle;rounded=0;orthogonalLoop=1;jettySize=auto;html=1;exitX=0.5;exitY=0;exitDx=0;exitDy=0;endArrow=none;endFill=0;entryX=0.5;entryY=1;entryDx=0;entryDy=0;" edge="1" parent="1" source="BV4Ng3nlLF1PLUaiVpaY-10" target="BV4Ng3nlLF1PLUaiVpaY-2">
          <mxGeometry relative="1" as="geometry">
            <mxPoint x="460" y="270" as="targetPoint" />
          </mxGeometry>
        </mxCell>
        <mxCell id="BV4Ng3nlLF1PLUaiVpaY-10" value="Sắp xếp thứ tự phòng" style="rounded=0;whiteSpace=wrap;html=1;" vertex="1" parent="1">
          <mxGeometry x="639.94" y="360" width="250.06" height="60" as="geometry" />
        </mxCell>
        <mxCell id="BV4Ng3nlLF1PLUaiVpaY-11" style="edgeStyle=orthogonalEdgeStyle;rounded=0;orthogonalLoop=1;jettySize=auto;html=1;exitX=0;exitY=0.5;exitDx=0;exitDy=0;entryX=0.25;entryY=1;entryDx=0;entryDy=0;endArrow=none;endFill=0;" edge="1" parent="1" source="BV4Ng3nlLF1PLUaiVpaY-12" target="BV4Ng3nlLF1PLUaiVpaY-8">
          <mxGeometry relative="1" as="geometry" />
        </mxCell>
        <mxCell id="BV4Ng3nlLF1PLUaiVpaY-12" value="Thay đổi thông tin phòng" style="rounded=0;whiteSpace=wrap;html=1;" vertex="1" parent="1">
          <mxGeometry x="414" y="450" width="120" height="60" as="geometry" />
        </mxCell>
        <mxCell id="BV4Ng3nlLF1PLUaiVpaY-13" style="edgeStyle=orthogonalEdgeStyle;rounded=0;orthogonalLoop=1;jettySize=auto;html=1;exitX=0;exitY=0.5;exitDx=0;exitDy=0;entryX=0.25;entryY=1;entryDx=0;entryDy=0;endArrow=none;endFill=0;" edge="1" parent="1" source="BV4Ng3nlLF1PLUaiVpaY-14" target="BV4Ng3nlLF1PLUaiVpaY-8">
          <mxGeometry relative="1" as="geometry" />
        </mxCell>
        <mxCell id="BV4Ng3nlLF1PLUaiVpaY-14" value="Cài đặt truy cập phòng" style="rounded=0;whiteSpace=wrap;html=1;" vertex="1" parent="1">
          <mxGeometry x="414" y="540" width="120" height="60" as="geometry" />
        </mxCell>
      </root>
    </mxGraphModel>
  </diagram>
  <diagram id="r8kQiuWyEjubRAAvxftz" name="DFD-Mức ngữ cảnh">
    <mxGraphModel dx="2276" dy="747" grid="1" gridSize="10" guides="1" tooltips="1" connect="1" arrows="1" fold="1" page="1" pageScale="1" pageWidth="850" pageHeight="1100" math="0" shadow="0">
      <root>
        <mxCell id="0" />
        <mxCell id="1" parent="0" />
        <mxCell id="dmBUWn266OzQsFgQNznE-1" value="Người dùng" style="rounded=0;whiteSpace=wrap;html=1;" parent="1" vertex="1">
          <mxGeometry x="120" y="640" width="120" height="60" as="geometry" />
        </mxCell>
        <mxCell id="dGBNiguhILkiy7mxD2-Q-1" value="Hệ quản lý thiết bị" style="ellipse;whiteSpace=wrap;html=1;fillColor=#d5e8d4;strokeColor=#82b366;" parent="1" vertex="1">
          <mxGeometry x="120" y="430" width="120" height="80" as="geometry" />
        </mxCell>
        <mxCell id="dGBNiguhILkiy7mxD2-Q-4" value="Hệ quản lý tài khoản" style="ellipse;whiteSpace=wrap;html=1;fillColor=#dae8fc;strokeColor=#6c8ebf;" parent="1" vertex="1">
          <mxGeometry x="490" y="470" width="120" height="80" as="geometry" />
        </mxCell>
        <mxCell id="dGBNiguhILkiy7mxD2-Q-5" value="Hệ quản lý phòng" style="ellipse;whiteSpace=wrap;html=1;fillColor=#ffe6cc;strokeColor=#d79b00;" parent="1" vertex="1">
          <mxGeometry x="-310" y="720" width="120" height="80" as="geometry" />
        </mxCell>
        <mxCell id="dGBNiguhILkiy7mxD2-Q-6" value="Hệ quản lý nhà" style="ellipse;whiteSpace=wrap;html=1;fillColor=#fff2cc;strokeColor=#d6b656;" parent="1" vertex="1">
          <mxGeometry x="450" y="860" width="120" height="80" as="geometry" />
        </mxCell>
        <mxCell id="dGBNiguhILkiy7mxD2-Q-7" value="Hệ quản lý thông báo" style="ellipse;whiteSpace=wrap;html=1;fillColor=#e1d5e7;strokeColor=#9673a6;" parent="1" vertex="1">
          <mxGeometry x="-350" y="410" width="120" height="80" as="geometry" />
        </mxCell>
        <mxCell id="dGBNiguhILkiy7mxD2-Q-8" value="Hệ quản lý kịch bản thông minh" style="ellipse;whiteSpace=wrap;html=1;fillColor=#f8cecc;strokeColor=#b85450;" parent="1" vertex="1">
          <mxGeometry x="70" y="900" width="120" height="80" as="geometry" />
        </mxCell>
        <mxCell id="HEDj9hYUvq3fTb7FGzKr-2" value="Quản lý tài khoản" style="endArrow=classic;html=1;rounded=0;exitX=1;exitY=0.5;exitDx=0;exitDy=0;entryX=0;entryY=0.5;entryDx=0;entryDy=0;fillColor=#dae8fc;strokeColor=#6c8ebf;" parent="1" source="dmBUWn266OzQsFgQNznE-1" target="dGBNiguhILkiy7mxD2-Q-4" edge="1">
          <mxGeometry width="50" height="50" relative="1" as="geometry">
            <mxPoint x="270" y="650" as="sourcePoint" />
            <mxPoint x="320" y="600" as="targetPoint" />
          </mxGeometry>
        </mxCell>
        <mxCell id="HEDj9hYUvq3fTb7FGzKr-3" value="Nền tảng Thingsboard" style="ellipse;whiteSpace=wrap;html=1;fillColor=#d5e8d4;strokeColor=#82b366;" parent="1" vertex="1">
          <mxGeometry x="120" y="220" width="120" height="80" as="geometry" />
        </mxCell>
        <mxCell id="HEDj9hYUvq3fTb7FGzKr-4" value="Quản lý thiết bị" style="endArrow=classic;html=1;rounded=0;entryX=0.5;entryY=1;entryDx=0;entryDy=0;exitX=0.5;exitY=0;exitDx=0;exitDy=0;fillColor=#d5e8d4;strokeColor=#82b366;" parent="1" source="dmBUWn266OzQsFgQNznE-1" target="dGBNiguhILkiy7mxD2-Q-1" edge="1">
          <mxGeometry width="50" height="50" relative="1" as="geometry">
            <mxPoint x="240" y="670" as="sourcePoint" />
            <mxPoint x="300" y="420" as="targetPoint" />
          </mxGeometry>
        </mxCell>
        <mxCell id="i-rJdflQP-ERKHUPAVG7-2" value="Thiết bị" style="rounded=0;whiteSpace=wrap;html=1;fillColor=#d5e8d4;strokeColor=#82b366;" parent="1" vertex="1">
          <mxGeometry x="120" y="70" width="120" height="60" as="geometry" />
        </mxCell>
        <mxCell id="i-rJdflQP-ERKHUPAVG7-4" value="Trả lời yêu cầu" style="curved=1;endArrow=classic;html=1;rounded=0;exitX=0;exitY=0.5;exitDx=0;exitDy=0;entryX=0.25;entryY=0;entryDx=0;entryDy=0;fillColor=#d5e8d4;strokeColor=#82b366;" parent="1" source="dGBNiguhILkiy7mxD2-Q-1" target="dmBUWn266OzQsFgQNznE-1" edge="1">
          <mxGeometry x="-0.5092" y="22" width="50" height="50" relative="1" as="geometry">
            <mxPoint x="390" y="420" as="sourcePoint" />
            <mxPoint x="440" y="370" as="targetPoint" />
            <Array as="points">
              <mxPoint x="60" y="570" />
            </Array>
            <mxPoint as="offset" />
          </mxGeometry>
        </mxCell>
        <mxCell id="i-rJdflQP-ERKHUPAVG7-5" value="Trả lời yêu cầu" style="curved=1;endArrow=classic;html=1;rounded=0;exitX=0;exitY=0;exitDx=0;exitDy=0;entryX=0.75;entryY=0;entryDx=0;entryDy=0;fillColor=#dae8fc;strokeColor=#6c8ebf;" parent="1" source="dGBNiguhILkiy7mxD2-Q-4" target="dmBUWn266OzQsFgQNznE-1" edge="1">
          <mxGeometry width="50" height="50" relative="1" as="geometry">
            <mxPoint x="360" y="450" as="sourcePoint" />
            <mxPoint x="410" y="400" as="targetPoint" />
            <Array as="points">
              <mxPoint x="400" y="460" />
              <mxPoint x="260" y="520" />
            </Array>
          </mxGeometry>
        </mxCell>
        <mxCell id="i-rJdflQP-ERKHUPAVG7-6" value="Quản lý phòng" style="endArrow=classic;html=1;rounded=0;exitX=0.25;exitY=1;exitDx=0;exitDy=0;entryX=1;entryY=0.5;entryDx=0;entryDy=0;fillColor=#ffe6cc;strokeColor=#d79b00;" parent="1" source="dmBUWn266OzQsFgQNznE-1" target="dGBNiguhILkiy7mxD2-Q-5" edge="1">
          <mxGeometry width="50" height="50" relative="1" as="geometry">
            <mxPoint x="120" y="780" as="sourcePoint" />
            <mxPoint x="170" y="730" as="targetPoint" />
          </mxGeometry>
        </mxCell>
        <mxCell id="i-rJdflQP-ERKHUPAVG7-7" value="Trả về yêu cầu" style="curved=1;endArrow=classic;html=1;rounded=0;exitX=1;exitY=0;exitDx=0;exitDy=0;entryX=0;entryY=0.75;entryDx=0;entryDy=0;fillColor=#ffe6cc;strokeColor=#d79b00;" parent="1" source="dGBNiguhILkiy7mxD2-Q-5" target="dmBUWn266OzQsFgQNznE-1" edge="1">
          <mxGeometry width="50" height="50" relative="1" as="geometry">
            <mxPoint x="-180" y="780" as="sourcePoint" />
            <mxPoint x="-130" y="730" as="targetPoint" />
            <Array as="points">
              <mxPoint x="-130" y="640" />
            </Array>
          </mxGeometry>
        </mxCell>
        <mxCell id="i-rJdflQP-ERKHUPAVG7-9" value="Quản lý nhà" style="endArrow=classic;html=1;rounded=0;exitX=0.75;exitY=1;exitDx=0;exitDy=0;entryX=0;entryY=0;entryDx=0;entryDy=0;fillColor=#fff2cc;strokeColor=#d6b656;" parent="1" source="dmBUWn266OzQsFgQNznE-1" target="dGBNiguhILkiy7mxD2-Q-6" edge="1">
          <mxGeometry width="50" height="50" relative="1" as="geometry">
            <mxPoint x="240" y="810" as="sourcePoint" />
            <mxPoint x="290" y="760" as="targetPoint" />
          </mxGeometry>
        </mxCell>
        <mxCell id="i-rJdflQP-ERKHUPAVG7-13" value="Trả lời yêu cầu" style="curved=1;endArrow=classic;html=1;rounded=0;exitX=0.5;exitY=0;exitDx=0;exitDy=0;entryX=1;entryY=1;entryDx=0;entryDy=0;fillColor=#fff2cc;strokeColor=#d6b656;" parent="1" source="dGBNiguhILkiy7mxD2-Q-6" target="dmBUWn266OzQsFgQNznE-1" edge="1">
          <mxGeometry x="0.0321" y="23" width="50" height="50" relative="1" as="geometry">
            <mxPoint x="390" y="800" as="sourcePoint" />
            <mxPoint x="440" y="750" as="targetPoint" />
            <Array as="points">
              <mxPoint x="440" y="730" />
            </Array>
            <mxPoint as="offset" />
          </mxGeometry>
        </mxCell>
        <mxCell id="i-rJdflQP-ERKHUPAVG7-17" value="Thông báo" style="endArrow=classic;html=1;rounded=0;exitX=1;exitY=1;exitDx=0;exitDy=0;entryX=0;entryY=0.5;entryDx=0;entryDy=0;fillColor=#e1d5e7;strokeColor=#9673a6;" parent="1" source="dGBNiguhILkiy7mxD2-Q-7" target="dmBUWn266OzQsFgQNznE-1" edge="1">
          <mxGeometry width="50" height="50" relative="1" as="geometry">
            <mxPoint x="-30" y="620" as="sourcePoint" />
            <mxPoint x="-30" y="620" as="targetPoint" />
          </mxGeometry>
        </mxCell>
        <mxCell id="i-rJdflQP-ERKHUPAVG7-25" value="Thông báo" style="endArrow=classic;html=1;rounded=0;exitX=0;exitY=0.5;exitDx=0;exitDy=0;entryX=0.5;entryY=0;entryDx=0;entryDy=0;fillColor=#e1d5e7;strokeColor=#9673a6;" parent="1" source="HEDj9hYUvq3fTb7FGzKr-3" target="dGBNiguhILkiy7mxD2-Q-7" edge="1">
          <mxGeometry width="50" height="50" relative="1" as="geometry">
            <mxPoint x="160" y="450" as="sourcePoint" />
            <mxPoint x="210" y="400" as="targetPoint" />
          </mxGeometry>
        </mxCell>
        <mxCell id="i-rJdflQP-ERKHUPAVG7-28" value="Quản lý kịch bản" style="endArrow=classic;html=1;rounded=0;exitX=0.5;exitY=1;exitDx=0;exitDy=0;entryX=0.5;entryY=0;entryDx=0;entryDy=0;fillColor=#f8cecc;strokeColor=#b85450;" parent="1" source="dmBUWn266OzQsFgQNznE-1" target="dGBNiguhILkiy7mxD2-Q-8" edge="1">
          <mxGeometry width="50" height="50" relative="1" as="geometry">
            <mxPoint x="100" y="920" as="sourcePoint" />
            <mxPoint x="150" y="870" as="targetPoint" />
          </mxGeometry>
        </mxCell>
        <mxCell id="i-rJdflQP-ERKHUPAVG7-29" value="Trả lời yêu cầu" style="curved=1;endArrow=classic;html=1;rounded=0;exitX=0;exitY=0;exitDx=0;exitDy=0;entryX=0.5;entryY=1;entryDx=0;entryDy=0;fillColor=#f8cecc;strokeColor=#b85450;" parent="1" source="dGBNiguhILkiy7mxD2-Q-8" target="dmBUWn266OzQsFgQNznE-1" edge="1">
          <mxGeometry x="-0.4201" y="-4" width="50" height="50" relative="1" as="geometry">
            <mxPoint x="30" y="950" as="sourcePoint" />
            <mxPoint x="80" y="900" as="targetPoint" />
            <Array as="points">
              <mxPoint x="40" y="790" />
            </Array>
            <mxPoint as="offset" />
          </mxGeometry>
        </mxCell>
        <mxCell id="i-rJdflQP-ERKHUPAVG7-30" value="Lệnh điều khiển" style="curved=1;endArrow=classic;html=1;rounded=0;exitX=1;exitY=0.5;exitDx=0;exitDy=0;entryX=1;entryY=0.5;entryDx=0;entryDy=0;fillColor=#d5e8d4;strokeColor=#82b366;" parent="1" source="HEDj9hYUvq3fTb7FGzKr-3" target="i-rJdflQP-ERKHUPAVG7-2" edge="1">
          <mxGeometry width="50" height="50" relative="1" as="geometry">
            <mxPoint x="280" y="250" as="sourcePoint" />
            <mxPoint x="330" y="200" as="targetPoint" />
            <Array as="points">
              <mxPoint x="320" y="230" />
              <mxPoint x="310" y="140" />
            </Array>
          </mxGeometry>
        </mxCell>
        <mxCell id="i-rJdflQP-ERKHUPAVG7-31" value="Dữ liệu trạng thái" style="curved=1;endArrow=classic;html=1;rounded=0;entryX=0;entryY=0.5;entryDx=0;entryDy=0;exitX=0;exitY=0.5;exitDx=0;exitDy=0;fillColor=#d5e8d4;strokeColor=#82b366;" parent="1" source="i-rJdflQP-ERKHUPAVG7-2" target="HEDj9hYUvq3fTb7FGzKr-3" edge="1">
          <mxGeometry x="0.2771" y="10" width="50" height="50" relative="1" as="geometry">
            <mxPoint x="-30" y="170" as="sourcePoint" />
            <mxPoint x="20" y="120" as="targetPoint" />
            <Array as="points">
              <mxPoint x="10" y="170" />
            </Array>
            <mxPoint as="offset" />
          </mxGeometry>
        </mxCell>
        <mxCell id="i-rJdflQP-ERKHUPAVG7-32" value="Bản tin điều khiển" style="curved=1;endArrow=classic;html=1;rounded=0;exitX=1;exitY=0.5;exitDx=0;exitDy=0;entryX=1;entryY=0.5;entryDx=0;entryDy=0;fillColor=#d5e8d4;strokeColor=#82b366;" parent="1" source="dGBNiguhILkiy7mxD2-Q-1" target="HEDj9hYUvq3fTb7FGzKr-3" edge="1">
          <mxGeometry width="50" height="50" relative="1" as="geometry">
            <mxPoint x="290" y="410" as="sourcePoint" />
            <mxPoint x="340" y="360" as="targetPoint" />
            <Array as="points">
              <mxPoint x="310" y="340" />
            </Array>
          </mxGeometry>
        </mxCell>
        <mxCell id="i-rJdflQP-ERKHUPAVG7-34" value="Dữ liệu của thiết bị" style="curved=1;endArrow=classic;html=1;rounded=0;exitX=0;exitY=0.5;exitDx=0;exitDy=0;entryX=0;entryY=0.5;entryDx=0;entryDy=0;fillColor=#d5e8d4;strokeColor=#82b366;" parent="1" source="HEDj9hYUvq3fTb7FGzKr-3" target="dGBNiguhILkiy7mxD2-Q-1" edge="1">
          <mxGeometry width="50" height="50" relative="1" as="geometry">
            <mxPoint x="140" y="390" as="sourcePoint" />
            <mxPoint x="190" y="340" as="targetPoint" />
            <Array as="points">
              <mxPoint x="40" y="370" />
            </Array>
          </mxGeometry>
        </mxCell>
        <mxCell id="uQk8DJb--kSb_wOPPMpi-2" value="Quản lý thông báo" style="endArrow=classic;html=1;rounded=0;exitX=0;exitY=0;exitDx=0;exitDy=0;entryX=1;entryY=0.5;entryDx=0;entryDy=0;fillColor=#e1d5e7;strokeColor=#9673a6;" parent="1" source="dmBUWn266OzQsFgQNznE-1" target="dGBNiguhILkiy7mxD2-Q-7" edge="1">
          <mxGeometry width="50" height="50" relative="1" as="geometry">
            <mxPoint x="-100" y="510" as="sourcePoint" />
            <mxPoint x="-50" y="460" as="targetPoint" />
          </mxGeometry>
        </mxCell>
        <mxCell id="uQk8DJb--kSb_wOPPMpi-3" value="Trả lời yêu cầu" style="curved=1;endArrow=classic;html=1;rounded=0;exitX=1;exitY=0.5;exitDx=0;exitDy=0;entryX=0;entryY=0;entryDx=0;entryDy=0;fillColor=#e1d5e7;strokeColor=#9673a6;" parent="1" source="dGBNiguhILkiy7mxD2-Q-7" target="dmBUWn266OzQsFgQNznE-1" edge="1">
          <mxGeometry x="-0.0388" y="-42" width="50" height="50" relative="1" as="geometry">
            <mxPoint x="-70" y="470" as="sourcePoint" />
            <mxPoint x="40" y="450" as="targetPoint" />
            <Array as="points">
              <mxPoint x="30" y="460" />
            </Array>
            <mxPoint x="-1" y="-1" as="offset" />
          </mxGeometry>
        </mxCell>
      </root>
    </mxGraphModel>
  </diagram>
  <diagram id="_TzRzJvzGi0vumRNMsnh" name="DFD- Mức 1 - Hệ Quản lý tài khoản">
    <mxGraphModel dx="1426" dy="747" grid="1" gridSize="10" guides="1" tooltips="1" connect="1" arrows="1" fold="1" page="1" pageScale="1" pageWidth="850" pageHeight="1100" math="0" shadow="0">
      <root>
        <mxCell id="0" />
        <mxCell id="1" parent="0" />
        <mxCell id="1f4LbPctmFEefiG20HrQ-1" value="Người dùng" style="rounded=0;whiteSpace=wrap;html=1;" parent="1" vertex="1">
          <mxGeometry x="10" y="320" width="120" height="60" as="geometry" />
        </mxCell>
        <mxCell id="1f4LbPctmFEefiG20HrQ-2" value="1&lt;div&gt;Đăng nhập&lt;/div&gt;" style="ellipse;whiteSpace=wrap;html=1;fillColor=#dae8fc;strokeColor=#6c8ebf;" parent="1" vertex="1">
          <mxGeometry x="430" y="80" width="120" height="80" as="geometry" />
        </mxCell>
        <mxCell id="5b_ja50LU7nNfkQNI3rz-1" value="Username và Password" style="endArrow=classic;html=1;rounded=0;exitX=1;exitY=0;exitDx=0;exitDy=0;entryX=0;entryY=1;entryDx=0;entryDy=0;fillColor=#dae8fc;strokeColor=#6c8ebf;" parent="1" source="1f4LbPctmFEefiG20HrQ-1" target="1f4LbPctmFEefiG20HrQ-2" edge="1">
          <mxGeometry width="50" height="50" relative="1" as="geometry">
            <mxPoint x="350" y="250" as="sourcePoint" />
            <mxPoint x="400" y="200" as="targetPoint" />
          </mxGeometry>
        </mxCell>
        <mxCell id="5b_ja50LU7nNfkQNI3rz-2" value="Trả lời yêu cầu đăng nhập" style="curved=1;endArrow=classic;html=1;rounded=0;entryX=0.5;entryY=0;entryDx=0;entryDy=0;exitX=0;exitY=0.5;exitDx=0;exitDy=0;fillColor=#dae8fc;strokeColor=#6c8ebf;" parent="1" source="1f4LbPctmFEefiG20HrQ-2" target="1f4LbPctmFEefiG20HrQ-1" edge="1">
          <mxGeometry x="-0.1218" y="32" width="50" height="50" relative="1" as="geometry">
            <mxPoint x="260" y="210" as="sourcePoint" />
            <mxPoint x="310" y="160" as="targetPoint" />
            <Array as="points">
              <mxPoint x="240" y="140" />
            </Array>
            <mxPoint as="offset" />
          </mxGeometry>
        </mxCell>
        <mxCell id="6F2P4yHDmaFvYUrDzAU2-1" value="3&lt;br&gt;&lt;div&gt;Quên mật khẩu&lt;/div&gt;" style="ellipse;whiteSpace=wrap;html=1;fillColor=#ffe6cc;strokeColor=#d79b00;" parent="1" vertex="1">
          <mxGeometry x="380" y="450" width="120" height="80" as="geometry" />
        </mxCell>
        <mxCell id="6F2P4yHDmaFvYUrDzAU2-3" value="Email và Password mới" style="endArrow=classic;html=1;rounded=0;exitX=1;exitY=1;exitDx=0;exitDy=0;entryX=0;entryY=0.5;entryDx=0;entryDy=0;fillColor=#ffe6cc;strokeColor=#d79b00;" parent="1" source="1f4LbPctmFEefiG20HrQ-1" target="6F2P4yHDmaFvYUrDzAU2-1" edge="1">
          <mxGeometry width="50" height="50" relative="1" as="geometry">
            <mxPoint x="360" y="400" as="sourcePoint" />
            <mxPoint x="410" y="350" as="targetPoint" />
          </mxGeometry>
        </mxCell>
        <mxCell id="6F2P4yHDmaFvYUrDzAU2-5" value="Người dùng" style="shape=partialRectangle;whiteSpace=wrap;html=1;left=0;right=0;fillColor=none;" parent="1" vertex="1">
          <mxGeometry x="700" y="350" width="120" height="30" as="geometry" />
        </mxCell>
        <mxCell id="6F2P4yHDmaFvYUrDzAU2-7" value="" style="endArrow=none;html=1;rounded=0;exitX=1;exitY=0.5;exitDx=0;exitDy=0;entryX=0.5;entryY=0;entryDx=0;entryDy=0;endFill=0;startArrow=classic;startFill=1;fillColor=#dae8fc;strokeColor=#6c8ebf;" parent="1" source="1f4LbPctmFEefiG20HrQ-2" target="6F2P4yHDmaFvYUrDzAU2-5" edge="1">
          <mxGeometry width="50" height="50" relative="1" as="geometry">
            <mxPoint x="630" y="140" as="sourcePoint" />
            <mxPoint x="680" y="90" as="targetPoint" />
          </mxGeometry>
        </mxCell>
        <mxCell id="tJ-QpcjuRfw2kyAFgFKk-1" value="" style="endArrow=classic;html=1;rounded=0;exitX=1;exitY=0.5;exitDx=0;exitDy=0;entryX=0;entryY=1;entryDx=0;entryDy=0;startArrow=classic;startFill=1;fillColor=#ffe6cc;strokeColor=#d79b00;" parent="1" source="6F2P4yHDmaFvYUrDzAU2-1" target="6F2P4yHDmaFvYUrDzAU2-5" edge="1">
          <mxGeometry width="50" height="50" relative="1" as="geometry">
            <mxPoint x="610" y="350" as="sourcePoint" />
            <mxPoint x="700" y="358" as="targetPoint" />
          </mxGeometry>
        </mxCell>
        <mxCell id="tJ-QpcjuRfw2kyAFgFKk-2" value="4&lt;br&gt;&lt;div&gt;Cài đặt tài khoản&lt;/div&gt;" style="ellipse;whiteSpace=wrap;html=1;fillColor=#f8cecc;strokeColor=#b85450;" parent="1" vertex="1">
          <mxGeometry x="330" y="590" width="120" height="80" as="geometry" />
        </mxCell>
        <mxCell id="tJ-QpcjuRfw2kyAFgFKk-5" value="Thông tin người dùng" style="endArrow=classic;html=1;rounded=0;exitX=0.5;exitY=1;exitDx=0;exitDy=0;entryX=0;entryY=0.5;entryDx=0;entryDy=0;fillColor=#f8cecc;strokeColor=#b85450;" parent="1" source="1f4LbPctmFEefiG20HrQ-1" target="tJ-QpcjuRfw2kyAFgFKk-2" edge="1">
          <mxGeometry width="50" height="50" relative="1" as="geometry">
            <mxPoint x="290" y="500" as="sourcePoint" />
            <mxPoint x="340" y="450" as="targetPoint" />
          </mxGeometry>
        </mxCell>
        <mxCell id="tJ-QpcjuRfw2kyAFgFKk-8" value="" style="endArrow=classic;startArrow=classic;html=1;rounded=0;entryX=0.5;entryY=1;entryDx=0;entryDy=0;exitX=1;exitY=0;exitDx=0;exitDy=0;fillColor=#f8cecc;strokeColor=#b85450;" parent="1" source="tJ-QpcjuRfw2kyAFgFKk-2" target="6F2P4yHDmaFvYUrDzAU2-5" edge="1">
          <mxGeometry width="50" height="50" relative="1" as="geometry">
            <mxPoint x="630" y="470" as="sourcePoint" />
            <mxPoint x="680" y="420" as="targetPoint" />
          </mxGeometry>
        </mxCell>
        <mxCell id="tJ-QpcjuRfw2kyAFgFKk-10" value="Trả lời yêu cầu đổi mật khẩu" style="curved=1;endArrow=classic;html=1;rounded=0;exitX=0;exitY=0;exitDx=0;exitDy=0;entryX=1;entryY=0.75;entryDx=0;entryDy=0;fillColor=#ffe6cc;strokeColor=#d79b00;" parent="1" source="6F2P4yHDmaFvYUrDzAU2-1" target="1f4LbPctmFEefiG20HrQ-1" edge="1">
          <mxGeometry x="-0.2932" y="18" width="50" height="50" relative="1" as="geometry">
            <mxPoint x="380" y="440" as="sourcePoint" />
            <mxPoint x="430" y="390" as="targetPoint" />
            <Array as="points">
              <mxPoint x="340" y="360" />
            </Array>
            <mxPoint as="offset" />
          </mxGeometry>
        </mxCell>
        <mxCell id="tJ-QpcjuRfw2kyAFgFKk-11" value="Thông tin người dùng nhập" style="curved=1;endArrow=classic;html=1;rounded=0;exitX=0;exitY=1;exitDx=0;exitDy=0;entryX=0.5;entryY=1;entryDx=0;entryDy=0;fillColor=#f8cecc;strokeColor=#b85450;" parent="1" source="tJ-QpcjuRfw2kyAFgFKk-2" target="1f4LbPctmFEefiG20HrQ-1" edge="1">
          <mxGeometry x="0.148" y="-35" width="50" height="50" relative="1" as="geometry">
            <mxPoint x="290" y="590" as="sourcePoint" />
            <mxPoint x="340" y="540" as="targetPoint" />
            <Array as="points">
              <mxPoint x="110" y="600" />
            </Array>
            <mxPoint as="offset" />
          </mxGeometry>
        </mxCell>
        <mxCell id="9q26DNd1p_zykf6Tutue-1" value="2&lt;div&gt;&lt;span style=&quot;background-color: initial;&quot;&gt;Đăng ký&lt;/span&gt;&lt;/div&gt;" style="ellipse;whiteSpace=wrap;html=1;fillColor=#d5e8d4;strokeColor=#82b366;" parent="1" vertex="1">
          <mxGeometry x="440" y="280" width="120" height="80" as="geometry" />
        </mxCell>
        <mxCell id="Bdjub_G4ZzV1gLo8lgGD-2" value="Thông tin tài khoản" style="endArrow=classic;html=1;rounded=0;exitX=1;exitY=0.5;exitDx=0;exitDy=0;entryX=0;entryY=0.5;entryDx=0;entryDy=0;fillColor=#d5e8d4;strokeColor=#82b366;" parent="1" source="1f4LbPctmFEefiG20HrQ-1" target="9q26DNd1p_zykf6Tutue-1" edge="1">
          <mxGeometry width="50" height="50" relative="1" as="geometry">
            <mxPoint x="340" y="320" as="sourcePoint" />
            <mxPoint x="390" y="270" as="targetPoint" />
          </mxGeometry>
        </mxCell>
        <mxCell id="Bdjub_G4ZzV1gLo8lgGD-3" value="" style="endArrow=classic;html=1;rounded=0;exitX=1;exitY=0.5;exitDx=0;exitDy=0;entryX=0;entryY=0;entryDx=0;entryDy=0;fillColor=#d5e8d4;strokeColor=#82b366;" parent="1" source="9q26DNd1p_zykf6Tutue-1" target="6F2P4yHDmaFvYUrDzAU2-5" edge="1">
          <mxGeometry width="50" height="50" relative="1" as="geometry">
            <mxPoint x="600" y="340" as="sourcePoint" />
            <mxPoint x="650" y="290" as="targetPoint" />
          </mxGeometry>
        </mxCell>
        <mxCell id="Bdjub_G4ZzV1gLo8lgGD-4" value="Trả lời yêu cầu đăng ký" style="curved=1;endArrow=classic;html=1;rounded=0;entryX=1;entryY=0.25;entryDx=0;entryDy=0;exitX=0;exitY=0;exitDx=0;exitDy=0;fillColor=#d5e8d4;strokeColor=#82b366;" parent="1" source="9q26DNd1p_zykf6Tutue-1" target="1f4LbPctmFEefiG20HrQ-1" edge="1">
          <mxGeometry width="50" height="50" relative="1" as="geometry">
            <mxPoint x="420" y="270" as="sourcePoint" />
            <mxPoint x="470" y="220" as="targetPoint" />
            <Array as="points">
              <mxPoint x="310" y="270" />
            </Array>
          </mxGeometry>
        </mxCell>
      </root>
    </mxGraphModel>
  </diagram>
  <diagram id="eWwovFZ6k6tg02r8SbvE" name="DFD - Mức 2+3 - Hệ quản lý tài khoản">
    <mxGraphModel dx="1678" dy="1979" grid="1" gridSize="10" guides="1" tooltips="1" connect="1" arrows="1" fold="1" page="1" pageScale="1" pageWidth="850" pageHeight="1100" math="0" shadow="0">
      <root>
        <mxCell id="0" />
        <mxCell id="1" parent="0" />
        <mxCell id="oAkGlrJIdJcWPrcMO_Bi-22" value="Người dùng" style="rounded=0;whiteSpace=wrap;html=1;" parent="1" vertex="1">
          <mxGeometry x="420" y="130" width="120" height="60" as="geometry" />
        </mxCell>
        <mxCell id="oAkGlrJIdJcWPrcMO_Bi-24" value="Username và Password" style="endArrow=classic;html=1;rounded=0;exitX=0.25;exitY=0;exitDx=0;exitDy=0;entryX=0;entryY=0.5;entryDx=0;entryDy=0;fillColor=#dae8fc;strokeColor=#6c8ebf;" parent="1" source="oAkGlrJIdJcWPrcMO_Bi-22" target="UyAT8tIOdZh2sH5oOwof-1" edge="1">
          <mxGeometry x="0.5206" y="21" width="50" height="50" relative="1" as="geometry">
            <mxPoint x="760" y="60" as="sourcePoint" />
            <mxPoint x="517.5735931288073" y="-151.71572875253833" as="targetPoint" />
            <mxPoint as="offset" />
          </mxGeometry>
        </mxCell>
        <mxCell id="oAkGlrJIdJcWPrcMO_Bi-28" value="Người dùng" style="shape=partialRectangle;whiteSpace=wrap;html=1;left=0;right=0;fillColor=none;" parent="1" vertex="1">
          <mxGeometry x="1310" y="220" width="120" height="30" as="geometry" />
        </mxCell>
        <mxCell id="oAkGlrJIdJcWPrcMO_Bi-29" value="" style="endArrow=none;html=1;rounded=0;exitX=1;exitY=0.5;exitDx=0;exitDy=0;entryX=0.5;entryY=0;entryDx=0;entryDy=0;endFill=0;startArrow=classic;startFill=1;fillColor=#dae8fc;strokeColor=#6c8ebf;" parent="1" source="UyAT8tIOdZh2sH5oOwof-1" target="oAkGlrJIdJcWPrcMO_Bi-28" edge="1">
          <mxGeometry width="50" height="50" relative="1" as="geometry">
            <mxPoint x="1040" y="-50" as="sourcePoint" />
            <mxPoint x="1090" y="-100" as="targetPoint" />
          </mxGeometry>
        </mxCell>
        <mxCell id="UyAT8tIOdZh2sH5oOwof-1" value="1.1&lt;div&gt;Nhận yêu cầu và xử lý thông tin&lt;/div&gt;" style="ellipse;whiteSpace=wrap;html=1;fillColor=#dae8fc;strokeColor=#6c8ebf;" parent="1" vertex="1">
          <mxGeometry x="730" y="-260" width="120" height="80" as="geometry" />
        </mxCell>
        <mxCell id="UyAT8tIOdZh2sH5oOwof-4" value="1.2&lt;div&gt;&lt;span style=&quot;background-color: initial;&quot;&gt;Trả lời yêu cầu&lt;/span&gt;&lt;/div&gt;" style="ellipse;whiteSpace=wrap;html=1;fillColor=#dae8fc;strokeColor=#6c8ebf;" parent="1" vertex="1">
          <mxGeometry x="740" y="-130" width="120" height="80" as="geometry" />
        </mxCell>
        <mxCell id="UyAT8tIOdZh2sH5oOwof-6" value="Thông tin đã được kiểm tra" style="endArrow=classic;html=1;rounded=0;exitX=0.5;exitY=1;exitDx=0;exitDy=0;entryX=0.5;entryY=0;entryDx=0;entryDy=0;fillColor=#dae8fc;strokeColor=#6c8ebf;" parent="1" source="UyAT8tIOdZh2sH5oOwof-1" target="UyAT8tIOdZh2sH5oOwof-4" edge="1">
          <mxGeometry width="50" height="50" relative="1" as="geometry">
            <mxPoint x="800" y="-110" as="sourcePoint" />
            <mxPoint x="850" y="-160" as="targetPoint" />
          </mxGeometry>
        </mxCell>
        <mxCell id="UyAT8tIOdZh2sH5oOwof-7" value="Đăng nhập thành công" style="endArrow=classic;html=1;rounded=0;exitX=0;exitY=0.5;exitDx=0;exitDy=0;entryX=0.5;entryY=0;entryDx=0;entryDy=0;fillColor=#dae8fc;strokeColor=#6c8ebf;" parent="1" source="UyAT8tIOdZh2sH5oOwof-4" target="oAkGlrJIdJcWPrcMO_Bi-22" edge="1">
          <mxGeometry x="-0.4448" y="-28" width="50" height="50" relative="1" as="geometry">
            <mxPoint x="620" y="30" as="sourcePoint" />
            <mxPoint x="570" y="20" as="targetPoint" />
            <mxPoint x="1" as="offset" />
          </mxGeometry>
        </mxCell>
        <mxCell id="UyAT8tIOdZh2sH5oOwof-8" value="Từ chối đăng nhập" style="endArrow=classic;html=1;rounded=0;entryX=0.75;entryY=0;entryDx=0;entryDy=0;exitX=0;exitY=1;exitDx=0;exitDy=0;fillColor=#dae8fc;strokeColor=#6c8ebf;" parent="1" source="UyAT8tIOdZh2sH5oOwof-4" target="oAkGlrJIdJcWPrcMO_Bi-22" edge="1">
          <mxGeometry x="-0.2708" y="18" width="50" height="50" relative="1" as="geometry">
            <mxPoint x="630" y="30" as="sourcePoint" />
            <mxPoint x="680" y="-20" as="targetPoint" />
            <mxPoint as="offset" />
          </mxGeometry>
        </mxCell>
        <mxCell id="UyAT8tIOdZh2sH5oOwof-9" value="2.1&lt;div&gt;Nhận và xử lý thông tin trùng&amp;nbsp;&lt;/div&gt;" style="ellipse;whiteSpace=wrap;html=1;fillColor=#d5e8d4;strokeColor=#82b366;" parent="1" vertex="1">
          <mxGeometry x="840" y="-30" width="120" height="80" as="geometry" />
        </mxCell>
        <mxCell id="UyAT8tIOdZh2sH5oOwof-10" value="Thông tin tài khoản" style="endArrow=classic;html=1;rounded=0;exitX=1;exitY=0.25;exitDx=0;exitDy=0;entryX=0;entryY=0.5;entryDx=0;entryDy=0;fillColor=#d5e8d4;strokeColor=#82b366;" parent="1" source="oAkGlrJIdJcWPrcMO_Bi-22" target="UyAT8tIOdZh2sH5oOwof-9" edge="1">
          <mxGeometry width="50" height="50" relative="1" as="geometry">
            <mxPoint x="640" y="440" as="sourcePoint" />
            <mxPoint x="970" y="320" as="targetPoint" />
          </mxGeometry>
        </mxCell>
        <mxCell id="UyAT8tIOdZh2sH5oOwof-11" value="2.2&lt;div&gt;Xử lý thông tin và thêm vào csdl&lt;/div&gt;" style="ellipse;whiteSpace=wrap;html=1;fillColor=#d5e8d4;strokeColor=#82b366;" parent="1" vertex="1">
          <mxGeometry x="1030" y="140" width="120" height="80" as="geometry" />
        </mxCell>
        <mxCell id="UyAT8tIOdZh2sH5oOwof-13" value="2.3&lt;div&gt;Trả lời yêu cầu&lt;/div&gt;" style="ellipse;whiteSpace=wrap;html=1;fillColor=#d5e8d4;strokeColor=#82b366;" parent="1" vertex="1">
          <mxGeometry x="730" y="140" width="120" height="80" as="geometry" />
        </mxCell>
        <mxCell id="UyAT8tIOdZh2sH5oOwof-14" value="Thông tin đã được xử lý" style="endArrow=classic;html=1;rounded=0;exitX=0;exitY=0.5;exitDx=0;exitDy=0;entryX=1;entryY=0.5;entryDx=0;entryDy=0;fillColor=#d5e8d4;strokeColor=#82b366;" parent="1" source="UyAT8tIOdZh2sH5oOwof-11" target="UyAT8tIOdZh2sH5oOwof-13" edge="1">
          <mxGeometry width="50" height="50" relative="1" as="geometry">
            <mxPoint x="960" y="200" as="sourcePoint" />
            <mxPoint x="1010" y="150" as="targetPoint" />
          </mxGeometry>
        </mxCell>
        <mxCell id="UyAT8tIOdZh2sH5oOwof-15" value="Đăng ký thành công" style="endArrow=classic;html=1;rounded=0;exitX=0;exitY=0;exitDx=0;exitDy=0;entryX=1;entryY=0.75;entryDx=0;entryDy=0;fillColor=#d5e8d4;strokeColor=#82b366;" parent="1" source="UyAT8tIOdZh2sH5oOwof-13" target="oAkGlrJIdJcWPrcMO_Bi-22" edge="1">
          <mxGeometry x="-0.1667" y="-10" width="50" height="50" relative="1" as="geometry">
            <mxPoint x="780" y="340" as="sourcePoint" />
            <mxPoint x="640" y="440" as="targetPoint" />
            <mxPoint as="offset" />
          </mxGeometry>
        </mxCell>
        <mxCell id="UyAT8tIOdZh2sH5oOwof-16" value="Đăng ký thất bại" style="endArrow=classic;html=1;rounded=0;entryX=1;entryY=1;entryDx=0;entryDy=0;exitX=0;exitY=0.5;exitDx=0;exitDy=0;fillColor=#d5e8d4;strokeColor=#82b366;" parent="1" source="UyAT8tIOdZh2sH5oOwof-13" target="oAkGlrJIdJcWPrcMO_Bi-22" edge="1">
          <mxGeometry x="-0.2708" y="18" width="50" height="50" relative="1" as="geometry">
            <mxPoint x="790" y="340" as="sourcePoint" />
            <mxPoint x="670" y="440" as="targetPoint" />
            <mxPoint as="offset" />
          </mxGeometry>
        </mxCell>
        <mxCell id="UyAT8tIOdZh2sH5oOwof-17" value="" style="endArrow=classic;html=1;rounded=0;exitX=1;exitY=0.5;exitDx=0;exitDy=0;entryX=0;entryY=0;entryDx=0;entryDy=0;fillColor=#d5e8d4;strokeColor=#82b366;" parent="1" source="UyAT8tIOdZh2sH5oOwof-11" target="oAkGlrJIdJcWPrcMO_Bi-28" edge="1">
          <mxGeometry width="50" height="50" relative="1" as="geometry">
            <mxPoint x="1160" y="220" as="sourcePoint" />
            <mxPoint x="1210" y="170" as="targetPoint" />
          </mxGeometry>
        </mxCell>
        <mxCell id="UyAT8tIOdZh2sH5oOwof-18" value="Email và Password mới" style="endArrow=classic;html=1;rounded=0;exitX=0.75;exitY=1;exitDx=0;exitDy=0;entryX=0;entryY=0.5;entryDx=0;entryDy=0;fillColor=#ffe6cc;strokeColor=#d79b00;" parent="1" source="oAkGlrJIdJcWPrcMO_Bi-22" target="UyAT8tIOdZh2sH5oOwof-20" edge="1">
          <mxGeometry width="50" height="50" relative="1" as="geometry">
            <mxPoint x="710" y="330" as="sourcePoint" />
            <mxPoint x="720" y="330" as="targetPoint" />
          </mxGeometry>
        </mxCell>
        <mxCell id="UyAT8tIOdZh2sH5oOwof-20" value="3.1&amp;nbsp;&lt;div&gt;Xử lý thông tin tài khoản&lt;/div&gt;" style="ellipse;whiteSpace=wrap;html=1;fillColor=#ffe6cc;strokeColor=#d79b00;" parent="1" vertex="1">
          <mxGeometry x="840" y="280" width="120" height="80" as="geometry" />
        </mxCell>
        <mxCell id="dEsvU-7zMuHXBIRdnIUB-2" value="" style="endArrow=classic;html=1;rounded=0;exitX=0;exitY=1;exitDx=0;exitDy=0;entryX=1;entryY=0.5;entryDx=0;entryDy=0;fillColor=#ffe6cc;strokeColor=#d79b00;" parent="1" source="oAkGlrJIdJcWPrcMO_Bi-28" target="UyAT8tIOdZh2sH5oOwof-20" edge="1">
          <mxGeometry width="50" height="50" relative="1" as="geometry">
            <mxPoint x="1220" y="300" as="sourcePoint" />
            <mxPoint x="1270" y="250" as="targetPoint" />
          </mxGeometry>
        </mxCell>
        <mxCell id="dEsvU-7zMuHXBIRdnIUB-3" value="3.3&lt;div&gt;Đổi mật khẩu&lt;/div&gt;" style="ellipse;whiteSpace=wrap;html=1;fillColor=#ffe6cc;strokeColor=#d79b00;" parent="1" vertex="1">
          <mxGeometry x="1050" y="390" width="120" height="80" as="geometry" />
        </mxCell>
        <mxCell id="dEsvU-7zMuHXBIRdnIUB-4" value="" style="endArrow=classic;html=1;rounded=0;exitX=1;exitY=0.5;exitDx=0;exitDy=0;entryX=0.25;entryY=1;entryDx=0;entryDy=0;fillColor=#ffe6cc;strokeColor=#d79b00;" parent="1" source="dEsvU-7zMuHXBIRdnIUB-3" target="oAkGlrJIdJcWPrcMO_Bi-28" edge="1">
          <mxGeometry width="50" height="50" relative="1" as="geometry">
            <mxPoint x="1160" y="450" as="sourcePoint" />
            <mxPoint x="1210" y="400" as="targetPoint" />
          </mxGeometry>
        </mxCell>
        <mxCell id="dEsvU-7zMuHXBIRdnIUB-5" value="3.4&lt;div&gt;Trả lời yêu cầu&lt;/div&gt;" style="ellipse;whiteSpace=wrap;html=1;fillColor=#ffe6cc;strokeColor=#d79b00;" parent="1" vertex="1">
          <mxGeometry x="720" y="440" width="120" height="80" as="geometry" />
        </mxCell>
        <mxCell id="dEsvU-7zMuHXBIRdnIUB-7" value="Tài khoản không tồn tại" style="endArrow=classic;html=1;rounded=0;exitX=0;exitY=1;exitDx=0;exitDy=0;entryX=1;entryY=0;entryDx=0;entryDy=0;fillColor=#ffe6cc;strokeColor=#d79b00;" parent="1" source="UyAT8tIOdZh2sH5oOwof-20" target="dEsvU-7zMuHXBIRdnIUB-5" edge="1">
          <mxGeometry width="50" height="50" relative="1" as="geometry">
            <mxPoint x="940" y="450" as="sourcePoint" />
            <mxPoint x="990" y="400" as="targetPoint" />
          </mxGeometry>
        </mxCell>
        <mxCell id="dEsvU-7zMuHXBIRdnIUB-9" value="Đổi mật khẩu không thành công" style="endArrow=classic;html=1;rounded=0;exitX=0;exitY=0;exitDx=0;exitDy=0;entryX=0.75;entryY=1;entryDx=0;entryDy=0;fillColor=#ffe6cc;strokeColor=#d79b00;" parent="1" source="dEsvU-7zMuHXBIRdnIUB-5" target="oAkGlrJIdJcWPrcMO_Bi-22" edge="1">
          <mxGeometry x="-0.209" y="-43" width="50" height="50" relative="1" as="geometry">
            <mxPoint x="650" y="450" as="sourcePoint" />
            <mxPoint x="700" y="400" as="targetPoint" />
            <mxPoint as="offset" />
          </mxGeometry>
        </mxCell>
        <mxCell id="rwDO8zMAXusAioMKDZi--3" value="" style="endArrow=classic;html=1;rounded=0;exitX=0.25;exitY=0;exitDx=0;exitDy=0;entryX=1;entryY=0.5;entryDx=0;entryDy=0;fillColor=#d5e8d4;strokeColor=#82b366;" parent="1" source="oAkGlrJIdJcWPrcMO_Bi-28" target="UyAT8tIOdZh2sH5oOwof-9" edge="1">
          <mxGeometry width="50" height="50" relative="1" as="geometry">
            <mxPoint x="1100" y="110" as="sourcePoint" />
            <mxPoint x="1150" y="60" as="targetPoint" />
          </mxGeometry>
        </mxCell>
        <mxCell id="rwDO8zMAXusAioMKDZi--5" value="Thông tin bị trùng" style="endArrow=classic;html=1;rounded=0;exitX=0.5;exitY=1;exitDx=0;exitDy=0;entryX=1;entryY=0;entryDx=0;entryDy=0;fillColor=#d5e8d4;strokeColor=#82b366;" parent="1" source="UyAT8tIOdZh2sH5oOwof-9" target="UyAT8tIOdZh2sH5oOwof-13" edge="1">
          <mxGeometry width="50" height="50" relative="1" as="geometry">
            <mxPoint x="860" y="130" as="sourcePoint" />
            <mxPoint x="910" y="80" as="targetPoint" />
          </mxGeometry>
        </mxCell>
        <mxCell id="rwDO8zMAXusAioMKDZi--6" value="Thông tin đã được lọc" style="endArrow=classic;html=1;rounded=0;exitX=1;exitY=1;exitDx=0;exitDy=0;entryX=0;entryY=0;entryDx=0;entryDy=0;fillColor=#d5e8d4;strokeColor=#82b366;" parent="1" source="UyAT8tIOdZh2sH5oOwof-9" target="UyAT8tIOdZh2sH5oOwof-11" edge="1">
          <mxGeometry width="50" height="50" relative="1" as="geometry">
            <mxPoint x="960" y="120" as="sourcePoint" />
            <mxPoint x="1010" y="70" as="targetPoint" />
          </mxGeometry>
        </mxCell>
        <mxCell id="rwDO8zMAXusAioMKDZi--7" value="Tài khoản tồn tại" style="endArrow=classic;html=1;rounded=0;exitX=1;exitY=1;exitDx=0;exitDy=0;entryX=0.5;entryY=0;entryDx=0;entryDy=0;fillColor=#ffe6cc;strokeColor=#d79b00;" parent="1" source="UyAT8tIOdZh2sH5oOwof-20" target="dEsvU-7zMuHXBIRdnIUB-3" edge="1">
          <mxGeometry width="50" height="50" relative="1" as="geometry">
            <mxPoint x="1000" y="410" as="sourcePoint" />
            <mxPoint x="1050" y="360" as="targetPoint" />
          </mxGeometry>
        </mxCell>
        <mxCell id="tBJ_VWRomxIaDi91PdJ1-1" value="Đổi mật khẩu thành công" style="endArrow=classic;html=1;rounded=0;exitX=0;exitY=0.5;exitDx=0;exitDy=0;entryX=0.558;entryY=0.967;entryDx=0;entryDy=0;entryPerimeter=0;fillColor=#ffe6cc;strokeColor=#d79b00;" parent="1" source="dEsvU-7zMuHXBIRdnIUB-5" target="oAkGlrJIdJcWPrcMO_Bi-22" edge="1">
          <mxGeometry x="-0.2476" y="16" width="50" height="50" relative="1" as="geometry">
            <mxPoint x="600" y="470" as="sourcePoint" />
            <mxPoint x="650" y="420" as="targetPoint" />
            <mxPoint as="offset" />
          </mxGeometry>
        </mxCell>
        <mxCell id="tBJ_VWRomxIaDi91PdJ1-2" value="4.1&lt;div&gt;Nhận yêu cầu của người dùng&lt;/div&gt;" style="ellipse;whiteSpace=wrap;html=1;fillColor=#f8cecc;strokeColor=#b85450;" parent="1" vertex="1">
          <mxGeometry x="540" y="530" width="120" height="80" as="geometry" />
        </mxCell>
        <mxCell id="cqaNqD5ALq9pm0tj3YKz-1" value="Thông tin người dùng và yêu cầu" style="endArrow=classic;html=1;rounded=0;exitX=0.5;exitY=1;exitDx=0;exitDy=0;entryX=0.5;entryY=0;entryDx=0;entryDy=0;fillColor=#f8cecc;strokeColor=#b85450;" edge="1" parent="1" source="oAkGlrJIdJcWPrcMO_Bi-22" target="tBJ_VWRomxIaDi91PdJ1-2">
          <mxGeometry x="0.4554" y="-8" width="50" height="50" relative="1" as="geometry">
            <mxPoint x="450" y="420" as="sourcePoint" />
            <mxPoint x="500" y="370" as="targetPoint" />
            <mxPoint as="offset" />
          </mxGeometry>
        </mxCell>
        <mxCell id="VsgOTLAjGoc-mFhPvtx8-1" value="Yêu cầu" style="endArrow=classic;html=1;rounded=0;exitX=1;exitY=0.5;exitDx=0;exitDy=0;entryX=0.042;entryY=0.5;entryDx=0;entryDy=0;entryPerimeter=0;fillColor=#f8cecc;strokeColor=#b85450;" edge="1" parent="1" source="tBJ_VWRomxIaDi91PdJ1-2" target="VsgOTLAjGoc-mFhPvtx8-2">
          <mxGeometry width="50" height="50" relative="1" as="geometry">
            <mxPoint x="710" y="690" as="sourcePoint" />
            <mxPoint x="760" y="640" as="targetPoint" />
          </mxGeometry>
        </mxCell>
        <mxCell id="VsgOTLAjGoc-mFhPvtx8-2" value="4.2&lt;div&gt;Phân luồng yêu cầu&lt;/div&gt;" style="ellipse;whiteSpace=wrap;html=1;fillColor=#f8cecc;strokeColor=#b85450;" vertex="1" parent="1">
          <mxGeometry x="730" y="600" width="120" height="80" as="geometry" />
        </mxCell>
        <mxCell id="VsgOTLAjGoc-mFhPvtx8-3" value="Yêu cầu thay đổi thông tin" style="endArrow=classic;html=1;rounded=0;exitX=1;exitY=0.5;exitDx=0;exitDy=0;entryX=0;entryY=0.5;entryDx=0;entryDy=0;fillColor=#f8cecc;strokeColor=#b85450;" edge="1" parent="1" source="VsgOTLAjGoc-mFhPvtx8-2" target="VsgOTLAjGoc-mFhPvtx8-4">
          <mxGeometry width="50" height="50" relative="1" as="geometry">
            <mxPoint x="990" y="670" as="sourcePoint" />
            <mxPoint x="1050" y="640" as="targetPoint" />
          </mxGeometry>
        </mxCell>
        <mxCell id="VsgOTLAjGoc-mFhPvtx8-4" value="4.2.1&lt;div&gt;Xử lý yêu cầu thay đổi thông tin&lt;/div&gt;" style="ellipse;whiteSpace=wrap;html=1;fillColor=#b1ddf0;strokeColor=#10739e;" vertex="1" parent="1">
          <mxGeometry x="1050" y="520" width="120" height="80" as="geometry" />
        </mxCell>
        <mxCell id="VsgOTLAjGoc-mFhPvtx8-5" value="4.2.2&lt;div&gt;Xử lý yêu cầu bảo mật tài khoản&lt;/div&gt;" style="ellipse;whiteSpace=wrap;html=1;fillColor=#d0cee2;strokeColor=#56517e;" vertex="1" parent="1">
          <mxGeometry x="1050" y="630" width="120" height="80" as="geometry" />
        </mxCell>
        <mxCell id="VsgOTLAjGoc-mFhPvtx8-6" value="Tài khoản và mật khẩu mới" style="endArrow=classic;html=1;rounded=0;exitX=0;exitY=0.5;exitDx=0;exitDy=0;entryX=1;entryY=0.5;entryDx=0;entryDy=0;fillColor=#ffe6cc;strokeColor=#d79b00;" edge="1" parent="1" source="dEsvU-7zMuHXBIRdnIUB-3" target="dEsvU-7zMuHXBIRdnIUB-5">
          <mxGeometry width="50" height="50" relative="1" as="geometry">
            <mxPoint x="930" y="490" as="sourcePoint" />
            <mxPoint x="980" y="440" as="targetPoint" />
          </mxGeometry>
        </mxCell>
        <mxCell id="VsgOTLAjGoc-mFhPvtx8-7" value="4.2.3&lt;div&gt;Xử lý yêu cầu xoá tài khoản&lt;/div&gt;" style="ellipse;whiteSpace=wrap;html=1;fillColor=#bac8d3;strokeColor=#23445d;" vertex="1" parent="1">
          <mxGeometry x="1050" y="740" width="120" height="80" as="geometry" />
        </mxCell>
        <mxCell id="VsgOTLAjGoc-mFhPvtx8-8" value="4.3&lt;div&gt;Trả lời yêu cầu&lt;/div&gt;" style="ellipse;whiteSpace=wrap;html=1;fillColor=#f8cecc;strokeColor=#b85450;" vertex="1" parent="1">
          <mxGeometry x="500" y="730" width="120" height="80" as="geometry" />
        </mxCell>
        <mxCell id="XiBMSgQndk7lbwVpeamh-2" value="" style="endArrow=classic;html=1;rounded=0;exitX=1;exitY=0.5;exitDx=0;exitDy=0;entryX=0.5;entryY=1;entryDx=0;entryDy=0;fillColor=#b1ddf0;strokeColor=#10739e;startArrow=classic;startFill=1;" edge="1" parent="1" source="VsgOTLAjGoc-mFhPvtx8-4" target="oAkGlrJIdJcWPrcMO_Bi-28">
          <mxGeometry width="50" height="50" relative="1" as="geometry">
            <mxPoint x="1290" y="410" as="sourcePoint" />
            <mxPoint x="1340" y="360" as="targetPoint" />
          </mxGeometry>
        </mxCell>
        <mxCell id="XiBMSgQndk7lbwVpeamh-3" value="" style="endArrow=classic;html=1;rounded=0;exitX=1;exitY=0.5;exitDx=0;exitDy=0;entryX=0.5;entryY=1;entryDx=0;entryDy=0;fillColor=#d0cee2;strokeColor=#56517e;" edge="1" parent="1" source="VsgOTLAjGoc-mFhPvtx8-5" target="oAkGlrJIdJcWPrcMO_Bi-28">
          <mxGeometry width="50" height="50" relative="1" as="geometry">
            <mxPoint x="1260" y="600" as="sourcePoint" />
            <mxPoint x="1310" y="550" as="targetPoint" />
          </mxGeometry>
        </mxCell>
        <mxCell id="XiBMSgQndk7lbwVpeamh-4" value="" style="endArrow=classic;html=1;rounded=0;exitX=1;exitY=0.5;exitDx=0;exitDy=0;entryX=0.75;entryY=1;entryDx=0;entryDy=0;fillColor=#bac8d3;strokeColor=#23445d;" edge="1" parent="1" source="VsgOTLAjGoc-mFhPvtx8-7" target="oAkGlrJIdJcWPrcMO_Bi-28">
          <mxGeometry width="50" height="50" relative="1" as="geometry">
            <mxPoint x="1270" y="750" as="sourcePoint" />
            <mxPoint x="1320" y="700" as="targetPoint" />
          </mxGeometry>
        </mxCell>
        <mxCell id="XiBMSgQndk7lbwVpeamh-7" value="Thông tin người dùng sau khi thay đổi" style="curved=1;endArrow=classic;html=1;rounded=0;exitX=0;exitY=1;exitDx=0;exitDy=0;entryX=1;entryY=0.5;entryDx=0;entryDy=0;fillColor=#b1ddf0;strokeColor=#10739e;" edge="1" parent="1" source="VsgOTLAjGoc-mFhPvtx8-4" target="VsgOTLAjGoc-mFhPvtx8-8">
          <mxGeometry x="0.3167" y="-21" width="50" height="50" relative="1" as="geometry">
            <mxPoint x="930" y="710" as="sourcePoint" />
            <mxPoint x="980" y="660" as="targetPoint" />
            <Array as="points">
              <mxPoint x="980" y="710" />
            </Array>
            <mxPoint as="offset" />
          </mxGeometry>
        </mxCell>
        <mxCell id="XiBMSgQndk7lbwVpeamh-8" value="Trạng thái bảo mật của tài khoản" style="curved=1;endArrow=classic;html=1;rounded=0;exitX=0;exitY=0.5;exitDx=0;exitDy=0;entryX=1;entryY=0.5;entryDx=0;entryDy=0;fillColor=#d0cee2;strokeColor=#56517e;" edge="1" parent="1" source="VsgOTLAjGoc-mFhPvtx8-5" target="VsgOTLAjGoc-mFhPvtx8-8">
          <mxGeometry width="50" height="50" relative="1" as="geometry">
            <mxPoint x="890" y="780" as="sourcePoint" />
            <mxPoint x="680" y="810" as="targetPoint" />
            <Array as="points">
              <mxPoint x="940" y="780" />
            </Array>
          </mxGeometry>
        </mxCell>
        <mxCell id="XiBMSgQndk7lbwVpeamh-9" value="Xoá tài khoản thành công" style="curved=1;endArrow=classic;html=1;rounded=0;exitX=0;exitY=0.5;exitDx=0;exitDy=0;entryX=1;entryY=0.5;entryDx=0;entryDy=0;fillColor=#bac8d3;strokeColor=#23445d;" edge="1" parent="1" source="VsgOTLAjGoc-mFhPvtx8-7" target="VsgOTLAjGoc-mFhPvtx8-8">
          <mxGeometry width="50" height="50" relative="1" as="geometry">
            <mxPoint x="940" y="840" as="sourcePoint" />
            <mxPoint x="990" y="790" as="targetPoint" />
            <Array as="points">
              <mxPoint x="900" y="820" />
              <mxPoint x="730" y="810" />
            </Array>
          </mxGeometry>
        </mxCell>
        <mxCell id="XiBMSgQndk7lbwVpeamh-11" value="Yêu cầu thành công" style="curved=1;endArrow=classic;html=1;rounded=0;exitX=0.5;exitY=0;exitDx=0;exitDy=0;entryX=0.25;entryY=1;entryDx=0;entryDy=0;fillColor=#f8cecc;strokeColor=#b85450;" edge="1" parent="1" source="VsgOTLAjGoc-mFhPvtx8-8" target="oAkGlrJIdJcWPrcMO_Bi-22">
          <mxGeometry x="-0.0577" y="-30" width="50" height="50" relative="1" as="geometry">
            <mxPoint x="420" y="660" as="sourcePoint" />
            <mxPoint x="470" y="610" as="targetPoint" />
            <Array as="points">
              <mxPoint x="490" y="620" />
              <mxPoint x="440" y="450" />
            </Array>
            <mxPoint as="offset" />
          </mxGeometry>
        </mxCell>
        <mxCell id="XiBMSgQndk7lbwVpeamh-12" value="Yêu cầu thất bại" style="curved=1;endArrow=classic;html=1;rounded=0;exitX=0;exitY=0;exitDx=0;exitDy=0;entryX=0;entryY=1;entryDx=0;entryDy=0;fillColor=#f8cecc;strokeColor=#b85450;" edge="1" parent="1" source="VsgOTLAjGoc-mFhPvtx8-8" target="oAkGlrJIdJcWPrcMO_Bi-22">
          <mxGeometry x="-0.5221" width="50" height="50" relative="1" as="geometry">
            <mxPoint x="460" y="730" as="sourcePoint" />
            <mxPoint x="510" y="680" as="targetPoint" />
            <Array as="points">
              <mxPoint x="510" y="730" />
              <mxPoint x="400" y="530" />
            </Array>
            <mxPoint as="offset" />
          </mxGeometry>
        </mxCell>
        <mxCell id="XiBMSgQndk7lbwVpeamh-13" value="Yêu cầu bảo mật tài khoản" style="endArrow=classic;html=1;rounded=0;entryX=0;entryY=0.5;entryDx=0;entryDy=0;fillColor=#f8cecc;strokeColor=#b85450;" edge="1" parent="1" target="VsgOTLAjGoc-mFhPvtx8-5">
          <mxGeometry width="50" height="50" relative="1" as="geometry">
            <mxPoint x="850" y="640" as="sourcePoint" />
            <mxPoint x="920" y="560" as="targetPoint" />
          </mxGeometry>
        </mxCell>
        <mxCell id="XiBMSgQndk7lbwVpeamh-14" value="Yêu cầu xoá tài khoản" style="endArrow=classic;html=1;rounded=0;exitX=1;exitY=0.5;exitDx=0;exitDy=0;entryX=0;entryY=0.5;entryDx=0;entryDy=0;fillColor=#f8cecc;strokeColor=#b85450;" edge="1" parent="1" source="VsgOTLAjGoc-mFhPvtx8-2" target="VsgOTLAjGoc-mFhPvtx8-7">
          <mxGeometry width="50" height="50" relative="1" as="geometry">
            <mxPoint x="890" y="590" as="sourcePoint" />
            <mxPoint x="940" y="540" as="targetPoint" />
          </mxGeometry>
        </mxCell>
      </root>
    </mxGraphModel>
  </diagram>
  <diagram id="1BvkSL6nd05ALrWiqnF1" name="DFD -Mức 1- Hệ quản lý nhà">
    <mxGraphModel dx="1434" dy="744" grid="1" gridSize="10" guides="1" tooltips="1" connect="1" arrows="1" fold="1" page="1" pageScale="1" pageWidth="850" pageHeight="1100" math="0" shadow="0">
      <root>
        <mxCell id="0" />
        <mxCell id="1" parent="0" />
        <mxCell id="8CnCa1kh72ZnW-r2T-ok-2" value="Người dùng" style="rounded=0;whiteSpace=wrap;html=1;" vertex="1" parent="1">
          <mxGeometry x="40" y="290" width="120" height="60" as="geometry" />
        </mxCell>
        <mxCell id="8CnCa1kh72ZnW-r2T-ok-3" value="1&lt;div&gt;Thêm/xoá nhà&lt;/div&gt;" style="ellipse;whiteSpace=wrap;html=1;fillColor=#dae8fc;strokeColor=#6c8ebf;" vertex="1" parent="1">
          <mxGeometry x="350" y="110" width="120" height="80" as="geometry" />
        </mxCell>
        <mxCell id="4lj0bQdLOrfQ0m9544zw-1" value="Thông tin nhà" style="endArrow=classic;html=1;rounded=0;exitX=0.75;exitY=0;exitDx=0;exitDy=0;entryX=0;entryY=0.5;entryDx=0;entryDy=0;fillColor=#dae8fc;strokeColor=#6c8ebf;" edge="1" parent="1" source="8CnCa1kh72ZnW-r2T-ok-2" target="8CnCa1kh72ZnW-r2T-ok-3">
          <mxGeometry width="50" height="50" relative="1" as="geometry">
            <mxPoint x="210" y="260" as="sourcePoint" />
            <mxPoint x="260" y="210" as="targetPoint" />
          </mxGeometry>
        </mxCell>
        <mxCell id="YRi2XXrcD7ckhUqhhMBN-2" value="2&lt;div&gt;Gia nhập nhà&lt;/div&gt;" style="ellipse;whiteSpace=wrap;html=1;fillColor=#d5e8d4;strokeColor=#82b366;" vertex="1" parent="1">
          <mxGeometry x="350" y="280" width="120" height="80" as="geometry" />
        </mxCell>
        <mxCell id="YRi2XXrcD7ckhUqhhMBN-3" value="3&lt;div&gt;Cài đặt nhà&lt;/div&gt;" style="ellipse;whiteSpace=wrap;html=1;fillColor=#ffe6cc;strokeColor=#d79b00;" vertex="1" parent="1">
          <mxGeometry x="350" y="450" width="120" height="80" as="geometry" />
        </mxCell>
        <mxCell id="QL3xB1EVaCzWkTQn62lo-1" value="Nhà" style="shape=partialRectangle;whiteSpace=wrap;html=1;left=0;right=0;fillColor=none;" vertex="1" parent="1">
          <mxGeometry x="650" y="305" width="120" height="30" as="geometry" />
        </mxCell>
        <mxCell id="QL3xB1EVaCzWkTQn62lo-3" value="Thành viên trong nhà" style="shape=partialRectangle;whiteSpace=wrap;html=1;left=0;right=0;fillColor=none;" vertex="1" parent="1">
          <mxGeometry x="650" y="135" width="120" height="30" as="geometry" />
        </mxCell>
        <mxCell id="QL3xB1EVaCzWkTQn62lo-4" value="Thông tin nhà" style="endArrow=classic;html=1;rounded=0;exitX=1;exitY=0.5;exitDx=0;exitDy=0;entryX=0;entryY=0.5;entryDx=0;entryDy=0;fillColor=#d5e8d4;strokeColor=#82b366;" edge="1" parent="1" source="8CnCa1kh72ZnW-r2T-ok-2" target="YRi2XXrcD7ckhUqhhMBN-2">
          <mxGeometry width="50" height="50" relative="1" as="geometry">
            <mxPoint x="290" y="360" as="sourcePoint" />
            <mxPoint x="340" y="310" as="targetPoint" />
          </mxGeometry>
        </mxCell>
        <mxCell id="QL3xB1EVaCzWkTQn62lo-5" value="Thông tin nhà" style="endArrow=classic;html=1;rounded=0;exitX=0.75;exitY=1;exitDx=0;exitDy=0;entryX=0;entryY=0.5;entryDx=0;entryDy=0;fillColor=#ffe6cc;strokeColor=#d79b00;" edge="1" parent="1" source="8CnCa1kh72ZnW-r2T-ok-2" target="YRi2XXrcD7ckhUqhhMBN-3">
          <mxGeometry width="50" height="50" relative="1" as="geometry">
            <mxPoint x="320" y="450" as="sourcePoint" />
            <mxPoint x="370" y="400" as="targetPoint" />
          </mxGeometry>
        </mxCell>
        <mxCell id="EYlUJSkZs9KxwiltPPJt-1" value="" style="endArrow=classic;html=1;rounded=0;exitX=1;exitY=0.5;exitDx=0;exitDy=0;entryX=0;entryY=0;entryDx=0;entryDy=0;fillColor=#dae8fc;strokeColor=#6c8ebf;" edge="1" parent="1" source="8CnCa1kh72ZnW-r2T-ok-3" target="QL3xB1EVaCzWkTQn62lo-1">
          <mxGeometry width="50" height="50" relative="1" as="geometry">
            <mxPoint x="520" y="250" as="sourcePoint" />
            <mxPoint x="570" y="200" as="targetPoint" />
          </mxGeometry>
        </mxCell>
        <mxCell id="own1iYx0JDVsj6XqbpVI-1" value="" style="endArrow=classic;html=1;rounded=0;exitX=1;exitY=0.5;exitDx=0;exitDy=0;entryX=0;entryY=0.5;entryDx=0;entryDy=0;startArrow=classic;startFill=1;fillColor=#dae8fc;strokeColor=#6c8ebf;" edge="1" parent="1" source="8CnCa1kh72ZnW-r2T-ok-3" target="QL3xB1EVaCzWkTQn62lo-3">
          <mxGeometry width="50" height="50" relative="1" as="geometry">
            <mxPoint x="470" y="280" as="sourcePoint" />
            <mxPoint x="520" y="230" as="targetPoint" />
          </mxGeometry>
        </mxCell>
        <mxCell id="own1iYx0JDVsj6XqbpVI-2" value="" style="endArrow=classic;html=1;rounded=0;exitX=1;exitY=0.5;exitDx=0;exitDy=0;entryX=0;entryY=1;entryDx=0;entryDy=0;fillColor=#d5e8d4;strokeColor=#82b366;" edge="1" parent="1" source="YRi2XXrcD7ckhUqhhMBN-2" target="QL3xB1EVaCzWkTQn62lo-3">
          <mxGeometry width="50" height="50" relative="1" as="geometry">
            <mxPoint x="480" y="410" as="sourcePoint" />
            <mxPoint x="530" y="360" as="targetPoint" />
          </mxGeometry>
        </mxCell>
        <mxCell id="own1iYx0JDVsj6XqbpVI-3" value="" style="endArrow=classic;html=1;rounded=0;exitX=1;exitY=0.5;exitDx=0;exitDy=0;entryX=0;entryY=1;entryDx=0;entryDy=0;startArrow=classic;startFill=1;fillColor=#ffe6cc;strokeColor=#d79b00;" edge="1" parent="1" source="YRi2XXrcD7ckhUqhhMBN-3" target="QL3xB1EVaCzWkTQn62lo-1">
          <mxGeometry width="50" height="50" relative="1" as="geometry">
            <mxPoint x="500" y="470" as="sourcePoint" />
            <mxPoint x="550" y="420" as="targetPoint" />
          </mxGeometry>
        </mxCell>
        <mxCell id="Z62GMNF1MVnZwhVlPblF-1" value="Trả lời yêu cầu" style="curved=1;endArrow=classic;html=1;rounded=0;exitX=0;exitY=0;exitDx=0;exitDy=0;entryX=0.5;entryY=0;entryDx=0;entryDy=0;fillColor=#dae8fc;strokeColor=#6c8ebf;" edge="1" parent="1" source="8CnCa1kh72ZnW-r2T-ok-3" target="8CnCa1kh72ZnW-r2T-ok-2">
          <mxGeometry x="0.246" y="25" width="50" height="50" relative="1" as="geometry">
            <mxPoint x="180" y="170" as="sourcePoint" />
            <mxPoint x="230" y="120" as="targetPoint" />
            <Array as="points">
              <mxPoint x="200" y="130" />
            </Array>
            <mxPoint as="offset" />
          </mxGeometry>
        </mxCell>
        <mxCell id="Z62GMNF1MVnZwhVlPblF-2" value="Trả lời yêu cầu" style="curved=1;endArrow=classic;html=1;rounded=0;exitX=0;exitY=0;exitDx=0;exitDy=0;entryX=1;entryY=0;entryDx=0;entryDy=0;fillColor=#d5e8d4;strokeColor=#82b366;" edge="1" parent="1" source="YRi2XXrcD7ckhUqhhMBN-2" target="8CnCa1kh72ZnW-r2T-ok-2">
          <mxGeometry width="50" height="50" relative="1" as="geometry">
            <mxPoint x="320" y="280" as="sourcePoint" />
            <mxPoint x="370" y="230" as="targetPoint" />
            <Array as="points">
              <mxPoint x="370" y="280" />
              <mxPoint x="260" y="260" />
            </Array>
          </mxGeometry>
        </mxCell>
        <mxCell id="kHcbas1qlC1Qi0Ka_8IU-1" value="Trả lời yêu cầu" style="curved=1;endArrow=classic;html=1;rounded=0;exitX=0;exitY=0;exitDx=0;exitDy=0;entryX=1;entryY=1;entryDx=0;entryDy=0;fillColor=#ffe6cc;strokeColor=#d79b00;" edge="1" parent="1" source="YRi2XXrcD7ckhUqhhMBN-3" target="8CnCa1kh72ZnW-r2T-ok-2">
          <mxGeometry width="50" height="50" relative="1" as="geometry">
            <mxPoint x="280" y="420" as="sourcePoint" />
            <mxPoint x="330" y="370" as="targetPoint" />
            <Array as="points">
              <mxPoint x="300" y="380" />
            </Array>
          </mxGeometry>
        </mxCell>
        <mxCell id="-0MpsnVrS2enaj_5dYSk-1" value="Người dùng" style="rounded=0;whiteSpace=wrap;html=1;" vertex="1" parent="1">
          <mxGeometry x="40" y="290" width="120" height="60" as="geometry" />
        </mxCell>
        <mxCell id="-0MpsnVrS2enaj_5dYSk-2" value="1&lt;div&gt;Thêm/xoá nhà&lt;/div&gt;" style="ellipse;whiteSpace=wrap;html=1;fillColor=#dae8fc;strokeColor=#6c8ebf;" vertex="1" parent="1">
          <mxGeometry x="350" y="110" width="120" height="80" as="geometry" />
        </mxCell>
        <mxCell id="-0MpsnVrS2enaj_5dYSk-3" value="Thông tin nhà" style="endArrow=classic;html=1;rounded=0;exitX=0.75;exitY=0;exitDx=0;exitDy=0;entryX=0;entryY=0.5;entryDx=0;entryDy=0;fillColor=#dae8fc;strokeColor=#6c8ebf;" edge="1" parent="1" source="-0MpsnVrS2enaj_5dYSk-1" target="-0MpsnVrS2enaj_5dYSk-2">
          <mxGeometry width="50" height="50" relative="1" as="geometry">
            <mxPoint x="210" y="260" as="sourcePoint" />
            <mxPoint x="260" y="210" as="targetPoint" />
          </mxGeometry>
        </mxCell>
        <mxCell id="-0MpsnVrS2enaj_5dYSk-4" value="2&lt;div&gt;Gia nhập nhà&lt;/div&gt;" style="ellipse;whiteSpace=wrap;html=1;fillColor=#d5e8d4;strokeColor=#82b366;" vertex="1" parent="1">
          <mxGeometry x="350" y="280" width="120" height="80" as="geometry" />
        </mxCell>
        <mxCell id="-0MpsnVrS2enaj_5dYSk-5" value="3&lt;div&gt;Cài đặt nhà&lt;/div&gt;" style="ellipse;whiteSpace=wrap;html=1;fillColor=#ffe6cc;strokeColor=#d79b00;" vertex="1" parent="1">
          <mxGeometry x="350" y="450" width="120" height="80" as="geometry" />
        </mxCell>
        <mxCell id="-0MpsnVrS2enaj_5dYSk-6" value="Nhà" style="shape=partialRectangle;whiteSpace=wrap;html=1;left=0;right=0;fillColor=none;" vertex="1" parent="1">
          <mxGeometry x="650" y="305" width="120" height="30" as="geometry" />
        </mxCell>
        <mxCell id="-0MpsnVrS2enaj_5dYSk-7" value="Thành viên trong nhà" style="shape=partialRectangle;whiteSpace=wrap;html=1;left=0;right=0;fillColor=none;" vertex="1" parent="1">
          <mxGeometry x="650" y="135" width="120" height="30" as="geometry" />
        </mxCell>
        <mxCell id="-0MpsnVrS2enaj_5dYSk-8" value="Thông tin nhà" style="endArrow=classic;html=1;rounded=0;exitX=1;exitY=0.5;exitDx=0;exitDy=0;entryX=0;entryY=0.5;entryDx=0;entryDy=0;fillColor=#d5e8d4;strokeColor=#82b366;" edge="1" parent="1" source="-0MpsnVrS2enaj_5dYSk-1" target="-0MpsnVrS2enaj_5dYSk-4">
          <mxGeometry width="50" height="50" relative="1" as="geometry">
            <mxPoint x="290" y="360" as="sourcePoint" />
            <mxPoint x="340" y="310" as="targetPoint" />
          </mxGeometry>
        </mxCell>
        <mxCell id="-0MpsnVrS2enaj_5dYSk-9" value="Thông tin nhà" style="endArrow=classic;html=1;rounded=0;exitX=0.75;exitY=1;exitDx=0;exitDy=0;entryX=0;entryY=0.5;entryDx=0;entryDy=0;fillColor=#ffe6cc;strokeColor=#d79b00;" edge="1" parent="1" source="-0MpsnVrS2enaj_5dYSk-1" target="-0MpsnVrS2enaj_5dYSk-5">
          <mxGeometry width="50" height="50" relative="1" as="geometry">
            <mxPoint x="320" y="450" as="sourcePoint" />
            <mxPoint x="370" y="400" as="targetPoint" />
          </mxGeometry>
        </mxCell>
        <mxCell id="-0MpsnVrS2enaj_5dYSk-10" value="" style="endArrow=classic;html=1;rounded=0;exitX=1;exitY=0.5;exitDx=0;exitDy=0;entryX=0;entryY=0;entryDx=0;entryDy=0;fillColor=#dae8fc;strokeColor=#6c8ebf;" edge="1" parent="1" source="-0MpsnVrS2enaj_5dYSk-2" target="-0MpsnVrS2enaj_5dYSk-6">
          <mxGeometry width="50" height="50" relative="1" as="geometry">
            <mxPoint x="520" y="250" as="sourcePoint" />
            <mxPoint x="570" y="200" as="targetPoint" />
          </mxGeometry>
        </mxCell>
        <mxCell id="-0MpsnVrS2enaj_5dYSk-11" value="" style="endArrow=classic;html=1;rounded=0;exitX=1;exitY=0.5;exitDx=0;exitDy=0;entryX=0;entryY=0.5;entryDx=0;entryDy=0;startArrow=classic;startFill=1;fillColor=#dae8fc;strokeColor=#6c8ebf;" edge="1" parent="1" source="-0MpsnVrS2enaj_5dYSk-2" target="-0MpsnVrS2enaj_5dYSk-7">
          <mxGeometry width="50" height="50" relative="1" as="geometry">
            <mxPoint x="470" y="280" as="sourcePoint" />
            <mxPoint x="520" y="230" as="targetPoint" />
          </mxGeometry>
        </mxCell>
        <mxCell id="-0MpsnVrS2enaj_5dYSk-12" value="" style="endArrow=classic;html=1;rounded=0;exitX=1;exitY=0.5;exitDx=0;exitDy=0;entryX=0;entryY=1;entryDx=0;entryDy=0;fillColor=#d5e8d4;strokeColor=#82b366;" edge="1" parent="1" source="-0MpsnVrS2enaj_5dYSk-4" target="-0MpsnVrS2enaj_5dYSk-7">
          <mxGeometry width="50" height="50" relative="1" as="geometry">
            <mxPoint x="480" y="410" as="sourcePoint" />
            <mxPoint x="530" y="360" as="targetPoint" />
          </mxGeometry>
        </mxCell>
        <mxCell id="-0MpsnVrS2enaj_5dYSk-13" value="" style="endArrow=classic;html=1;rounded=0;exitX=1;exitY=0.5;exitDx=0;exitDy=0;entryX=0;entryY=1;entryDx=0;entryDy=0;startArrow=classic;startFill=1;fillColor=#ffe6cc;strokeColor=#d79b00;" edge="1" parent="1" source="-0MpsnVrS2enaj_5dYSk-5" target="-0MpsnVrS2enaj_5dYSk-6">
          <mxGeometry width="50" height="50" relative="1" as="geometry">
            <mxPoint x="500" y="470" as="sourcePoint" />
            <mxPoint x="550" y="420" as="targetPoint" />
          </mxGeometry>
        </mxCell>
        <mxCell id="-0MpsnVrS2enaj_5dYSk-14" value="Trả lời yêu cầu" style="curved=1;endArrow=classic;html=1;rounded=0;exitX=0;exitY=0;exitDx=0;exitDy=0;entryX=0.5;entryY=0;entryDx=0;entryDy=0;fillColor=#dae8fc;strokeColor=#6c8ebf;" edge="1" parent="1" source="-0MpsnVrS2enaj_5dYSk-2" target="-0MpsnVrS2enaj_5dYSk-1">
          <mxGeometry x="0.246" y="25" width="50" height="50" relative="1" as="geometry">
            <mxPoint x="180" y="170" as="sourcePoint" />
            <mxPoint x="230" y="120" as="targetPoint" />
            <Array as="points">
              <mxPoint x="200" y="130" />
            </Array>
            <mxPoint as="offset" />
          </mxGeometry>
        </mxCell>
        <mxCell id="-0MpsnVrS2enaj_5dYSk-15" value="Trả lời yêu cầu" style="curved=1;endArrow=classic;html=1;rounded=0;exitX=0;exitY=0;exitDx=0;exitDy=0;entryX=1;entryY=0;entryDx=0;entryDy=0;fillColor=#d5e8d4;strokeColor=#82b366;" edge="1" parent="1" source="-0MpsnVrS2enaj_5dYSk-4" target="-0MpsnVrS2enaj_5dYSk-1">
          <mxGeometry width="50" height="50" relative="1" as="geometry">
            <mxPoint x="320" y="280" as="sourcePoint" />
            <mxPoint x="370" y="230" as="targetPoint" />
            <Array as="points">
              <mxPoint x="370" y="280" />
              <mxPoint x="260" y="260" />
            </Array>
          </mxGeometry>
        </mxCell>
        <mxCell id="-0MpsnVrS2enaj_5dYSk-16" value="Trả lời yêu cầu" style="curved=1;endArrow=classic;html=1;rounded=0;exitX=0;exitY=0;exitDx=0;exitDy=0;entryX=1;entryY=1;entryDx=0;entryDy=0;fillColor=#ffe6cc;strokeColor=#d79b00;" edge="1" parent="1" source="-0MpsnVrS2enaj_5dYSk-5" target="-0MpsnVrS2enaj_5dYSk-1">
          <mxGeometry width="50" height="50" relative="1" as="geometry">
            <mxPoint x="280" y="420" as="sourcePoint" />
            <mxPoint x="330" y="370" as="targetPoint" />
            <Array as="points">
              <mxPoint x="300" y="380" />
            </Array>
          </mxGeometry>
        </mxCell>
        <mxCell id="-0MpsnVrS2enaj_5dYSk-17" value="Lịch sử hành động" style="shape=partialRectangle;whiteSpace=wrap;html=1;left=0;right=0;fillColor=none;" vertex="1" parent="1">
          <mxGeometry x="650" y="430" width="120" height="30" as="geometry" />
        </mxCell>
        <mxCell id="-0MpsnVrS2enaj_5dYSk-18" value="" style="endArrow=classic;html=1;rounded=0;exitX=1;exitY=0.5;exitDx=0;exitDy=0;entryX=0;entryY=0;entryDx=0;entryDy=0;fillColor=#dae8fc;strokeColor=#6c8ebf;" edge="1" parent="1" source="-0MpsnVrS2enaj_5dYSk-2" target="-0MpsnVrS2enaj_5dYSk-17">
          <mxGeometry width="50" height="50" relative="1" as="geometry">
            <mxPoint x="540" y="380" as="sourcePoint" />
            <mxPoint x="590" y="330" as="targetPoint" />
          </mxGeometry>
        </mxCell>
        <mxCell id="-0MpsnVrS2enaj_5dYSk-20" value="" style="endArrow=classic;html=1;rounded=0;exitX=1;exitY=1;exitDx=0;exitDy=0;entryX=0;entryY=0.5;entryDx=0;entryDy=0;fillColor=#ffe6cc;strokeColor=#d79b00;" edge="1" parent="1" source="-0MpsnVrS2enaj_5dYSk-5" target="-0MpsnVrS2enaj_5dYSk-17">
          <mxGeometry width="50" height="50" relative="1" as="geometry">
            <mxPoint x="460" y="440" as="sourcePoint" />
            <mxPoint x="480" y="420" as="targetPoint" />
          </mxGeometry>
        </mxCell>
        <mxCell id="-0MpsnVrS2enaj_5dYSk-21" value="" style="endArrow=classic;html=1;rounded=0;exitX=1;exitY=0;exitDx=0;exitDy=0;entryX=0;entryY=1;entryDx=0;entryDy=0;fillColor=#ffe6cc;strokeColor=#d79b00;startArrow=classic;startFill=1;" edge="1" parent="1" source="-0MpsnVrS2enaj_5dYSk-5" target="-0MpsnVrS2enaj_5dYSk-7">
          <mxGeometry width="50" height="50" relative="1" as="geometry">
            <mxPoint x="460" y="440" as="sourcePoint" />
            <mxPoint x="510" y="390" as="targetPoint" />
          </mxGeometry>
        </mxCell>
      </root>
    </mxGraphModel>
  </diagram>
  <diagram id="hdedz5JEqAppltm7PkKR" name="DFD - Mức 2+3 - Hệ quản lý nhà">
    <mxGraphModel dx="2336" dy="1952" grid="1" gridSize="10" guides="1" tooltips="1" connect="1" arrows="1" fold="1" page="1" pageScale="1" pageWidth="827" pageHeight="1169" math="0" shadow="0">
      <root>
        <mxCell id="0" />
        <mxCell id="1" parent="0" />
        <mxCell id="-km3lYnYX9jTpJM_EjLQ-1" value="Yêu cầu cài đặt nhà" style="rounded=0;orthogonalLoop=1;jettySize=auto;html=1;exitX=0.5;exitY=1;exitDx=0;exitDy=0;entryX=0;entryY=0;entryDx=0;entryDy=0;" edge="1" parent="1" source="4okW6mIYA5f5L780_QHX-1" target="U_Fpi9ToLAVBsPr_0Hqv-1">
          <mxGeometry relative="1" as="geometry" />
        </mxCell>
        <mxCell id="4okW6mIYA5f5L780_QHX-1" value="Người dùng" style="rounded=0;whiteSpace=wrap;html=1;" vertex="1" parent="1">
          <mxGeometry x="-160" y="290" width="120" height="60" as="geometry" />
        </mxCell>
        <mxCell id="wrGfxdwQYI8hnoizHfsS-10" value="Thông tin nhà" style="rounded=0;orthogonalLoop=1;jettySize=auto;html=1;exitX=0.75;exitY=0;exitDx=0;exitDy=0;fillColor=#dae8fc;strokeColor=#6c8ebf;" edge="1" parent="1" source="4okW6mIYA5f5L780_QHX-1" target="wrGfxdwQYI8hnoizHfsS-12">
          <mxGeometry relative="1" as="geometry">
            <mxPoint x="12.426406871193194" y="-31.715728752538325" as="sourcePoint" />
          </mxGeometry>
        </mxCell>
        <mxCell id="TLkThPaIw2O2rx1C89hX-5" value="Mã nhà" style="rounded=0;orthogonalLoop=1;jettySize=auto;html=1;exitX=1;exitY=0;exitDx=0;exitDy=0;entryX=0;entryY=1;entryDx=0;entryDy=0;fillColor=#d5e8d4;strokeColor=#82b366;" edge="1" parent="1" source="4okW6mIYA5f5L780_QHX-4" target="TLkThPaIw2O2rx1C89hX-1">
          <mxGeometry relative="1" as="geometry" />
        </mxCell>
        <mxCell id="TLkThPaIw2O2rx1C89hX-8" style="rounded=0;orthogonalLoop=1;jettySize=auto;html=1;exitX=1;exitY=0.5;exitDx=0;exitDy=0;fillColor=#d5e8d4;strokeColor=#82b366;startArrow=classic;startFill=1;endArrow=none;endFill=0;" edge="1" parent="1" source="4okW6mIYA5f5L780_QHX-4" target="4okW6mIYA5f5L780_QHX-6">
          <mxGeometry relative="1" as="geometry" />
        </mxCell>
        <mxCell id="4okW6mIYA5f5L780_QHX-4" value="2.1&lt;div&gt;Tìm nhà&lt;/div&gt;" style="ellipse;whiteSpace=wrap;html=1;fillColor=#d5e8d4;strokeColor=#82b366;" vertex="1" parent="1">
          <mxGeometry x="270" y="260" width="120" height="80" as="geometry" />
        </mxCell>
        <mxCell id="4okW6mIYA5f5L780_QHX-6" value="Nhà" style="shape=partialRectangle;whiteSpace=wrap;html=1;left=0;right=0;fillColor=none;" vertex="1" parent="1">
          <mxGeometry x="740" y="290" width="120" height="30" as="geometry" />
        </mxCell>
        <mxCell id="4okW6mIYA5f5L780_QHX-7" value="Thành viên trong nhà" style="shape=partialRectangle;whiteSpace=wrap;html=1;left=0;right=0;fillColor=none;" vertex="1" parent="1">
          <mxGeometry x="690" y="160" width="120" height="30" as="geometry" />
        </mxCell>
        <mxCell id="4okW6mIYA5f5L780_QHX-8" value="Thông tin nhà" style="endArrow=classic;html=1;rounded=0;exitX=1;exitY=0.5;exitDx=0;exitDy=0;entryX=0;entryY=0.5;entryDx=0;entryDy=0;fillColor=#d5e8d4;strokeColor=#82b366;" edge="1" parent="1" source="4okW6mIYA5f5L780_QHX-1" target="4okW6mIYA5f5L780_QHX-4">
          <mxGeometry width="50" height="50" relative="1" as="geometry">
            <mxPoint x="290" y="360" as="sourcePoint" />
            <mxPoint x="340" y="310" as="targetPoint" />
          </mxGeometry>
        </mxCell>
        <mxCell id="4okW6mIYA5f5L780_QHX-11" value="" style="endArrow=classic;html=1;rounded=0;exitX=1;exitY=0.5;exitDx=0;exitDy=0;startArrow=none;startFill=0;fillColor=#dae8fc;strokeColor=#6c8ebf;entryX=0.5;entryY=0;entryDx=0;entryDy=0;" edge="1" parent="1" source="wrGfxdwQYI8hnoizHfsS-1" target="ypkfwFXKy02PsrZ13pcV-2">
          <mxGeometry width="50" height="50" relative="1" as="geometry">
            <mxPoint x="180" y="130" as="sourcePoint" />
            <mxPoint x="130" y="80" as="targetPoint" />
          </mxGeometry>
        </mxCell>
        <mxCell id="4okW6mIYA5f5L780_QHX-17" value="Lịch sử hành động" style="shape=partialRectangle;whiteSpace=wrap;html=1;left=0;right=0;fillColor=none;" vertex="1" parent="1">
          <mxGeometry x="760" y="640" width="120" height="30" as="geometry" />
        </mxCell>
        <mxCell id="wrGfxdwQYI8hnoizHfsS-1" value="&lt;div&gt;1.1.1&lt;/div&gt;Thêm người dùng là chủ nhà" style="ellipse;whiteSpace=wrap;html=1;direction=east;flipV=0;flipH=1;fillColor=#dae8fc;strokeColor=#6c8ebf;" vertex="1" parent="1">
          <mxGeometry x="320" y="-270" width="120" height="80" as="geometry" />
        </mxCell>
        <mxCell id="wrGfxdwQYI8hnoizHfsS-2" value="Thông tin nhà" style="endArrow=classic;html=1;rounded=0;exitX=0.5;exitY=0;exitDx=0;exitDy=0;entryX=0;entryY=1;entryDx=0;entryDy=0;fillColor=#dae8fc;strokeColor=#6c8ebf;" edge="1" parent="1" source="4okW6mIYA5f5L780_QHX-1" target="wrGfxdwQYI8hnoizHfsS-6">
          <mxGeometry width="50" height="50" relative="1" as="geometry">
            <mxPoint x="12.426406871193194" y="-88.2842712474619" as="sourcePoint" />
            <mxPoint x="-340" y="-120" as="targetPoint" />
          </mxGeometry>
        </mxCell>
        <mxCell id="wrGfxdwQYI8hnoizHfsS-7" style="rounded=0;orthogonalLoop=1;jettySize=auto;html=1;exitX=1;exitY=1;exitDx=0;exitDy=0;entryX=0.5;entryY=0;entryDx=0;entryDy=0;fillColor=#dae8fc;strokeColor=#6c8ebf;" edge="1" parent="1" source="wrGfxdwQYI8hnoizHfsS-6" target="wrGfxdwQYI8hnoizHfsS-17">
          <mxGeometry relative="1" as="geometry" />
        </mxCell>
        <mxCell id="wrGfxdwQYI8hnoizHfsS-8" value="Mã nhà" style="rounded=0;orthogonalLoop=1;jettySize=auto;html=1;exitX=1;exitY=0.5;exitDx=0;exitDy=0;fillColor=#dae8fc;strokeColor=#6c8ebf;" edge="1" parent="1" source="wrGfxdwQYI8hnoizHfsS-6" target="wrGfxdwQYI8hnoizHfsS-1">
          <mxGeometry relative="1" as="geometry" />
        </mxCell>
        <mxCell id="ypkfwFXKy02PsrZ13pcV-23" style="rounded=0;orthogonalLoop=1;jettySize=auto;html=1;exitX=0.5;exitY=1;exitDx=0;exitDy=0;entryX=0.5;entryY=0;entryDx=0;entryDy=0;fillColor=#dae8fc;strokeColor=#6c8ebf;" edge="1" parent="1" source="wrGfxdwQYI8hnoizHfsS-6" target="ypkfwFXKy02PsrZ13pcV-22">
          <mxGeometry relative="1" as="geometry" />
        </mxCell>
        <mxCell id="wrGfxdwQYI8hnoizHfsS-6" value="1.1&lt;div&gt;&lt;div&gt;Thêm nhà&lt;/div&gt;&lt;/div&gt;" style="ellipse;whiteSpace=wrap;html=1;direction=east;flipV=0;flipH=1;fillColor=#dae8fc;strokeColor=#6c8ebf;" vertex="1" parent="1">
          <mxGeometry x="80" y="-270" width="120" height="80" as="geometry" />
        </mxCell>
        <mxCell id="wrGfxdwQYI8hnoizHfsS-13" value="Danh sách thành viên" style="rounded=0;orthogonalLoop=1;jettySize=auto;html=1;exitX=1;exitY=0.5;exitDx=0;exitDy=0;entryX=0;entryY=0.5;entryDx=0;entryDy=0;fillColor=#dae8fc;strokeColor=#6c8ebf;" edge="1" parent="1" source="wrGfxdwQYI8hnoizHfsS-9" target="ypkfwFXKy02PsrZ13pcV-1">
          <mxGeometry relative="1" as="geometry" />
        </mxCell>
        <mxCell id="wrGfxdwQYI8hnoizHfsS-9" value="&lt;div&gt;&lt;span style=&quot;background-color: initial;&quot;&gt;1.2.1&lt;/span&gt;&lt;/div&gt;&lt;div&gt;&lt;span style=&quot;background-color: initial;&quot;&gt;Lấy danh sách thành viên&lt;/span&gt;&lt;/div&gt;" style="ellipse;whiteSpace=wrap;html=1;direction=east;flipV=0;flipH=1;fillColor=#dae8fc;strokeColor=#6c8ebf;" vertex="1" parent="1">
          <mxGeometry x="354" y="-30" width="120" height="80" as="geometry" />
        </mxCell>
        <mxCell id="ypkfwFXKy02PsrZ13pcV-8" style="rounded=0;orthogonalLoop=1;jettySize=auto;html=1;exitX=0.5;exitY=0;exitDx=0;exitDy=0;entryX=0.5;entryY=1;entryDx=0;entryDy=0;fillColor=#dae8fc;strokeColor=#6c8ebf;" edge="1" parent="1" source="wrGfxdwQYI8hnoizHfsS-12" target="wrGfxdwQYI8hnoizHfsS-17">
          <mxGeometry relative="1" as="geometry" />
        </mxCell>
        <mxCell id="ypkfwFXKy02PsrZ13pcV-15" value="Mã nhà" style="rounded=0;orthogonalLoop=1;jettySize=auto;html=1;exitX=1;exitY=0.5;exitDx=0;exitDy=0;entryX=0;entryY=0.5;entryDx=0;entryDy=0;fillColor=#dae8fc;strokeColor=#6c8ebf;" edge="1" parent="1" source="wrGfxdwQYI8hnoizHfsS-12" target="wrGfxdwQYI8hnoizHfsS-9">
          <mxGeometry relative="1" as="geometry" />
        </mxCell>
        <mxCell id="ypkfwFXKy02PsrZ13pcV-24" style="rounded=0;orthogonalLoop=1;jettySize=auto;html=1;exitX=0.5;exitY=0;exitDx=0;exitDy=0;entryX=0.5;entryY=1;entryDx=0;entryDy=0;fillColor=#dae8fc;strokeColor=#6c8ebf;" edge="1" parent="1" source="wrGfxdwQYI8hnoizHfsS-12" target="ypkfwFXKy02PsrZ13pcV-22">
          <mxGeometry relative="1" as="geometry" />
        </mxCell>
        <mxCell id="wrGfxdwQYI8hnoizHfsS-12" value="1.2&lt;div&gt;Xoá nhà&lt;/div&gt;" style="ellipse;whiteSpace=wrap;html=1;direction=east;flipV=0;flipH=1;fillColor=#dae8fc;strokeColor=#6c8ebf;" vertex="1" parent="1">
          <mxGeometry x="110" y="40" width="120" height="80" as="geometry" />
        </mxCell>
        <mxCell id="wrGfxdwQYI8hnoizHfsS-17" value="Nhà" style="shape=partialRectangle;whiteSpace=wrap;html=1;left=0;right=0;direction=east;flipV=0;flipH=1;fillColor=none;" vertex="1" parent="1">
          <mxGeometry x="240" y="-110" width="120" height="30" as="geometry" />
        </mxCell>
        <mxCell id="ypkfwFXKy02PsrZ13pcV-10" style="rounded=0;orthogonalLoop=1;jettySize=auto;html=1;exitX=0;exitY=0;exitDx=0;exitDy=0;entryX=0.75;entryY=1;entryDx=0;entryDy=0;fillColor=#dae8fc;strokeColor=#6c8ebf;" edge="1" parent="1" source="ypkfwFXKy02PsrZ13pcV-1" target="ypkfwFXKy02PsrZ13pcV-2">
          <mxGeometry relative="1" as="geometry" />
        </mxCell>
        <mxCell id="ypkfwFXKy02PsrZ13pcV-17" value="Kết quả yêu cầu" style="rounded=0;orthogonalLoop=1;jettySize=auto;html=1;exitX=0.5;exitY=0;exitDx=0;exitDy=0;entryX=0.5;entryY=1;entryDx=0;entryDy=0;fillColor=#dae8fc;strokeColor=#6c8ebf;" edge="1" parent="1" source="ypkfwFXKy02PsrZ13pcV-1" target="ypkfwFXKy02PsrZ13pcV-11">
          <mxGeometry relative="1" as="geometry" />
        </mxCell>
        <mxCell id="ypkfwFXKy02PsrZ13pcV-1" value="&lt;div&gt;1.2.2&lt;/div&gt;Xoá các quyền trong nhà" style="ellipse;whiteSpace=wrap;html=1;direction=east;flipV=0;flipH=1;fillColor=#dae8fc;strokeColor=#6c8ebf;" vertex="1" parent="1">
          <mxGeometry x="670" y="-40" width="120" height="80" as="geometry" />
        </mxCell>
        <mxCell id="ypkfwFXKy02PsrZ13pcV-9" style="rounded=0;orthogonalLoop=1;jettySize=auto;html=1;exitX=0.25;exitY=1;exitDx=0;exitDy=0;entryX=0.5;entryY=0;entryDx=0;entryDy=0;fillColor=#dae8fc;strokeColor=#6c8ebf;" edge="1" parent="1" source="ypkfwFXKy02PsrZ13pcV-2" target="wrGfxdwQYI8hnoizHfsS-9">
          <mxGeometry relative="1" as="geometry" />
        </mxCell>
        <mxCell id="ypkfwFXKy02PsrZ13pcV-2" value="Thành viên trong nhà" style="shape=partialRectangle;whiteSpace=wrap;html=1;left=0;right=0;direction=east;flipV=0;flipH=1;fillColor=none;" vertex="1" parent="1">
          <mxGeometry x="420" y="-140" width="120" height="30" as="geometry" />
        </mxCell>
        <mxCell id="ypkfwFXKy02PsrZ13pcV-18" value="Yêu cầu thất bại" style="edgeStyle=orthogonalEdgeStyle;rounded=0;orthogonalLoop=1;jettySize=auto;html=1;exitX=0.5;exitY=0;exitDx=0;exitDy=0;entryX=0;entryY=0;entryDx=0;entryDy=0;curved=1;fillColor=#dae8fc;strokeColor=#6c8ebf;" edge="1" parent="1" source="ypkfwFXKy02PsrZ13pcV-11" target="4okW6mIYA5f5L780_QHX-1">
          <mxGeometry x="-0.1742" y="30" relative="1" as="geometry">
            <Array as="points">
              <mxPoint x="670" y="-370" />
              <mxPoint x="-160" y="-370" />
            </Array>
            <mxPoint as="offset" />
          </mxGeometry>
        </mxCell>
        <mxCell id="ypkfwFXKy02PsrZ13pcV-19" value="Yêu cầu thành công" style="edgeStyle=orthogonalEdgeStyle;rounded=0;orthogonalLoop=1;jettySize=auto;html=1;exitX=0;exitY=0;exitDx=0;exitDy=0;entryX=0.25;entryY=0;entryDx=0;entryDy=0;curved=1;fillColor=#dae8fc;strokeColor=#6c8ebf;" edge="1" parent="1" source="ypkfwFXKy02PsrZ13pcV-11" target="4okW6mIYA5f5L780_QHX-1">
          <mxGeometry x="-0.334" y="20" relative="1" as="geometry">
            <Array as="points">
              <mxPoint x="628" y="-330" />
              <mxPoint x="-130" y="-330" />
            </Array>
            <mxPoint x="-1" as="offset" />
          </mxGeometry>
        </mxCell>
        <mxCell id="ypkfwFXKy02PsrZ13pcV-11" value="Trả lời" style="ellipse;whiteSpace=wrap;html=1;fillColor=#dae8fc;strokeColor=#6c8ebf;" vertex="1" parent="1">
          <mxGeometry x="610" y="-310" width="120" height="80" as="geometry" />
        </mxCell>
        <mxCell id="ypkfwFXKy02PsrZ13pcV-16" value="Kết quả yêu cầu" style="rounded=0;orthogonalLoop=1;jettySize=auto;html=1;exitX=1;exitY=0.5;exitDx=0;exitDy=0;entryX=0.031;entryY=0.606;entryDx=0;entryDy=0;entryPerimeter=0;fillColor=#dae8fc;strokeColor=#6c8ebf;" edge="1" parent="1" source="wrGfxdwQYI8hnoizHfsS-1" target="ypkfwFXKy02PsrZ13pcV-11">
          <mxGeometry relative="1" as="geometry" />
        </mxCell>
        <mxCell id="ypkfwFXKy02PsrZ13pcV-22" value="Lịch sử hành động" style="shape=partialRectangle;whiteSpace=wrap;html=1;left=0;right=0;fillColor=none;" vertex="1" parent="1">
          <mxGeometry x="90" y="-90" width="120" height="30" as="geometry" />
        </mxCell>
        <mxCell id="TLkThPaIw2O2rx1C89hX-3" style="rounded=0;orthogonalLoop=1;jettySize=auto;html=1;exitX=1;exitY=0.5;exitDx=0;exitDy=0;entryX=0;entryY=0.5;entryDx=0;entryDy=0;fillColor=#d5e8d4;strokeColor=#82b366;" edge="1" parent="1" source="TLkThPaIw2O2rx1C89hX-1" target="4okW6mIYA5f5L780_QHX-7">
          <mxGeometry relative="1" as="geometry" />
        </mxCell>
        <mxCell id="TLkThPaIw2O2rx1C89hX-6" value="GIa nhập nhà thành công" style="rounded=0;orthogonalLoop=1;jettySize=auto;html=1;exitX=0;exitY=0;exitDx=0;exitDy=0;entryX=1;entryY=0;entryDx=0;entryDy=0;fillColor=#d5e8d4;strokeColor=#82b366;" edge="1" parent="1" source="TLkThPaIw2O2rx1C89hX-1" target="4okW6mIYA5f5L780_QHX-1">
          <mxGeometry x="-0.0392" y="-29" relative="1" as="geometry">
            <mxPoint as="offset" />
          </mxGeometry>
        </mxCell>
        <mxCell id="TLkThPaIw2O2rx1C89hX-7" value="Gia nhập nhà thât bại" style="rounded=0;orthogonalLoop=1;jettySize=auto;html=1;exitX=0;exitY=0.5;exitDx=0;exitDy=0;entryX=1;entryY=0.25;entryDx=0;entryDy=0;fillColor=#d5e8d4;strokeColor=#82b366;" edge="1" parent="1" source="TLkThPaIw2O2rx1C89hX-1" target="4okW6mIYA5f5L780_QHX-1">
          <mxGeometry x="-0.2862" y="16" relative="1" as="geometry">
            <mxPoint as="offset" />
          </mxGeometry>
        </mxCell>
        <mxCell id="TLkThPaIw2O2rx1C89hX-1" value="2.2&lt;div&gt;Thêm người dùng là thành viên trong nhà&lt;/div&gt;" style="ellipse;whiteSpace=wrap;html=1;fillColor=#d5e8d4;strokeColor=#82b366;" vertex="1" parent="1">
          <mxGeometry x="420" y="140" width="120" height="80" as="geometry" />
        </mxCell>
        <mxCell id="-km3lYnYX9jTpJM_EjLQ-2" value="Thông tin nhà" style="rounded=0;orthogonalLoop=1;jettySize=auto;html=1;exitX=1;exitY=0;exitDx=0;exitDy=0;entryX=0;entryY=0;entryDx=0;entryDy=0;fillColor=#ffe6cc;strokeColor=#d79b00;" edge="1" parent="1" source="U_Fpi9ToLAVBsPr_0Hqv-1" target="U_Fpi9ToLAVBsPr_0Hqv-2">
          <mxGeometry relative="1" as="geometry" />
        </mxCell>
        <mxCell id="DDyE7UeGsZf3UpvrUJpe-3" value="Người dùng" style="rounded=0;orthogonalLoop=1;jettySize=auto;html=1;exitX=1;exitY=1;exitDx=0;exitDy=0;entryX=0;entryY=0.5;entryDx=0;entryDy=0;fillColor=#ffe6cc;strokeColor=#d79b00;" edge="1" parent="1" source="U_Fpi9ToLAVBsPr_0Hqv-1" target="-km3lYnYX9jTpJM_EjLQ-5">
          <mxGeometry relative="1" as="geometry" />
        </mxCell>
        <mxCell id="DDyE7UeGsZf3UpvrUJpe-4" value="Danh sách thành viên" style="rounded=0;orthogonalLoop=1;jettySize=auto;html=1;exitX=0.5;exitY=1;exitDx=0;exitDy=0;entryX=0;entryY=0.5;entryDx=0;entryDy=0;fillColor=#ffe6cc;strokeColor=#d79b00;" edge="1" parent="1" source="U_Fpi9ToLAVBsPr_0Hqv-1" target="DDyE7UeGsZf3UpvrUJpe-1">
          <mxGeometry relative="1" as="geometry" />
        </mxCell>
        <mxCell id="U_Fpi9ToLAVBsPr_0Hqv-1" value="&lt;div&gt;3.1&lt;/div&gt;Xử lý yêu cầu cài đặt nhà" style="ellipse;whiteSpace=wrap;html=1;fillColor=#ffe6cc;strokeColor=#d79b00;" vertex="1" parent="1">
          <mxGeometry x="-90" y="450" width="120" height="80" as="geometry" />
        </mxCell>
        <mxCell id="DDyE7UeGsZf3UpvrUJpe-8" style="rounded=0;orthogonalLoop=1;jettySize=auto;html=1;exitX=1;exitY=0.5;exitDx=0;exitDy=0;entryX=0.25;entryY=0;entryDx=0;entryDy=0;fillColor=#ffe6cc;strokeColor=#d79b00;" edge="1" parent="1" source="U_Fpi9ToLAVBsPr_0Hqv-2" target="DDyE7UeGsZf3UpvrUJpe-7">
          <mxGeometry relative="1" as="geometry" />
        </mxCell>
        <mxCell id="DDyE7UeGsZf3UpvrUJpe-9" style="rounded=0;orthogonalLoop=1;jettySize=auto;html=1;exitX=1;exitY=1;exitDx=0;exitDy=0;entryX=0.25;entryY=0;entryDx=0;entryDy=0;fillColor=#ffe6cc;strokeColor=#d79b00;" edge="1" parent="1" source="U_Fpi9ToLAVBsPr_0Hqv-2" target="4okW6mIYA5f5L780_QHX-17">
          <mxGeometry relative="1" as="geometry" />
        </mxCell>
        <mxCell id="qza889DcOh_1TMV8TfBh-4" value="Kết quả sửa thông tin" style="rounded=0;orthogonalLoop=1;jettySize=auto;html=1;exitX=0;exitY=1;exitDx=0;exitDy=0;entryX=1;entryY=0;entryDx=0;entryDy=0;fillColor=#b0e3e6;strokeColor=#0e8088;" edge="1" parent="1" source="U_Fpi9ToLAVBsPr_0Hqv-2" target="qza889DcOh_1TMV8TfBh-3">
          <mxGeometry x="-0.7598" y="-5" relative="1" as="geometry">
            <mxPoint as="offset" />
          </mxGeometry>
        </mxCell>
        <mxCell id="U_Fpi9ToLAVBsPr_0Hqv-2" value="3.2.1&lt;div&gt;&amp;nbsp;Sửa thông tin nhà&lt;/div&gt;" style="ellipse;whiteSpace=wrap;html=1;fillColor=#b0e3e6;strokeColor=#0e8088;" vertex="1" parent="1">
          <mxGeometry x="490" y="400" width="120" height="80" as="geometry" />
        </mxCell>
        <mxCell id="zD6BlarjNqxi5kzcypvW-9" value="Người dùng" style="rounded=0;orthogonalLoop=1;jettySize=auto;html=1;exitX=1;exitY=0.5;exitDx=0;exitDy=0;entryX=0;entryY=0.5;entryDx=0;entryDy=0;fillColor=#ffe6cc;strokeColor=#d79b00;" edge="1" parent="1" source="-km3lYnYX9jTpJM_EjLQ-5" target="zD6BlarjNqxi5kzcypvW-7">
          <mxGeometry relative="1" as="geometry" />
        </mxCell>
        <mxCell id="qza889DcOh_1TMV8TfBh-1" value="Người dùng" style="rounded=0;orthogonalLoop=1;jettySize=auto;html=1;exitX=1;exitY=0.5;exitDx=0;exitDy=0;entryX=0;entryY=0.5;entryDx=0;entryDy=0;fillColor=#ffe6cc;strokeColor=#d79b00;" edge="1" parent="1" source="-km3lYnYX9jTpJM_EjLQ-5" target="kukGivv9sdmeafwEGvit-1">
          <mxGeometry x="-0.6588" y="-4" relative="1" as="geometry">
            <mxPoint as="offset" />
          </mxGeometry>
        </mxCell>
        <mxCell id="-km3lYnYX9jTpJM_EjLQ-5" value="3.3.1&lt;div&gt;Thêm/xoá thành viên&lt;/div&gt;" style="ellipse;whiteSpace=wrap;html=1;fillColor=#ffe6cc;strokeColor=#d79b00;" vertex="1" parent="1">
          <mxGeometry x="190" y="595" width="120" height="80" as="geometry" />
        </mxCell>
        <mxCell id="zD6BlarjNqxi5kzcypvW-3" value="Thành viên được chọn" style="rounded=0;orthogonalLoop=1;jettySize=auto;html=1;exitX=1;exitY=0.5;exitDx=0;exitDy=0;entryX=0;entryY=0.5;entryDx=0;entryDy=0;fillColor=#ffe6cc;strokeColor=#d79b00;" edge="1" parent="1" source="DDyE7UeGsZf3UpvrUJpe-1" target="zD6BlarjNqxi5kzcypvW-2">
          <mxGeometry x="0.3083" y="-9" relative="1" as="geometry">
            <mxPoint as="offset" />
          </mxGeometry>
        </mxCell>
        <mxCell id="DDyE7UeGsZf3UpvrUJpe-1" value="3.4.1&lt;div&gt;Chuyển quyền sở hữu&lt;/div&gt;" style="ellipse;whiteSpace=wrap;html=1;fillColor=#ffe6cc;strokeColor=#d79b00;" vertex="1" parent="1">
          <mxGeometry x="170" y="780" width="120" height="80" as="geometry" />
        </mxCell>
        <mxCell id="DDyE7UeGsZf3UpvrUJpe-7" value="Nhà" style="shape=partialRectangle;whiteSpace=wrap;html=1;left=0;right=0;fillColor=none;" vertex="1" parent="1">
          <mxGeometry x="750" y="555" width="120" height="30" as="geometry" />
        </mxCell>
        <mxCell id="zD6BlarjNqxi5kzcypvW-5" style="rounded=0;orthogonalLoop=1;jettySize=auto;html=1;exitX=1;exitY=0.5;exitDx=0;exitDy=0;entryX=0.5;entryY=1;entryDx=0;entryDy=0;fillColor=#ffe6cc;strokeColor=#d79b00;" edge="1" parent="1" source="zD6BlarjNqxi5kzcypvW-2" target="zD6BlarjNqxi5kzcypvW-4">
          <mxGeometry relative="1" as="geometry" />
        </mxCell>
        <mxCell id="qza889DcOh_1TMV8TfBh-7" value="Kết quả chuyển quyền sở hữu" style="rounded=0;orthogonalLoop=1;jettySize=auto;html=1;exitX=0;exitY=1;exitDx=0;exitDy=0;fillColor=#bac8d3;strokeColor=#23445d;" edge="1" parent="1" source="zD6BlarjNqxi5kzcypvW-2">
          <mxGeometry relative="1" as="geometry">
            <mxPoint x="230" y="1000" as="targetPoint" />
          </mxGeometry>
        </mxCell>
        <mxCell id="zD6BlarjNqxi5kzcypvW-2" value="&lt;div&gt;3.4.2&lt;/div&gt;Sửa thành viên được chọn là chủ nhà và chủ nhà thành thành viên" style="ellipse;whiteSpace=wrap;html=1;fillColor=#bac8d3;strokeColor=#23445d;" vertex="1" parent="1">
          <mxGeometry x="570" y="890" width="200" height="100" as="geometry" />
        </mxCell>
        <mxCell id="zD6BlarjNqxi5kzcypvW-4" value="Thành viên trong nhà" style="shape=partialRectangle;whiteSpace=wrap;html=1;left=0;right=0;fillColor=none;" vertex="1" parent="1">
          <mxGeometry x="760" y="760" width="120" height="30" as="geometry" />
        </mxCell>
        <mxCell id="zD6BlarjNqxi5kzcypvW-10" style="rounded=0;orthogonalLoop=1;jettySize=auto;html=1;exitX=1;exitY=0.5;exitDx=0;exitDy=0;entryX=0;entryY=0;entryDx=0;entryDy=0;fillColor=#ffe6cc;strokeColor=#d79b00;" edge="1" parent="1" source="zD6BlarjNqxi5kzcypvW-7" target="zD6BlarjNqxi5kzcypvW-4">
          <mxGeometry relative="1" as="geometry" />
        </mxCell>
        <mxCell id="qza889DcOh_1TMV8TfBh-5" value="Kết quả thêm&amp;nbsp;" style="rounded=0;orthogonalLoop=1;jettySize=auto;html=1;exitX=0;exitY=1;exitDx=0;exitDy=0;fillColor=#b1ddf0;strokeColor=#10739e;" edge="1" parent="1" source="zD6BlarjNqxi5kzcypvW-7">
          <mxGeometry x="-0.2196" y="-17" relative="1" as="geometry">
            <mxPoint x="230" y="1000" as="targetPoint" />
            <mxPoint as="offset" />
          </mxGeometry>
        </mxCell>
        <mxCell id="zD6BlarjNqxi5kzcypvW-7" value="3.3.2&lt;div&gt;Thêm thành viên và nhà và đặt quyền là thành viên&lt;/div&gt;" style="ellipse;whiteSpace=wrap;html=1;fillColor=#b1ddf0;strokeColor=#10739e;" vertex="1" parent="1">
          <mxGeometry x="490" y="580" width="160" height="110" as="geometry" />
        </mxCell>
        <mxCell id="qza889DcOh_1TMV8TfBh-2" style="rounded=0;orthogonalLoop=1;jettySize=auto;html=1;exitX=1;exitY=0.5;exitDx=0;exitDy=0;fillColor=#ffe6cc;strokeColor=#d79b00;" edge="1" parent="1" source="kukGivv9sdmeafwEGvit-1" target="zD6BlarjNqxi5kzcypvW-4">
          <mxGeometry relative="1" as="geometry" />
        </mxCell>
        <mxCell id="qza889DcOh_1TMV8TfBh-6" value="Kết quả xoá" style="rounded=0;orthogonalLoop=1;jettySize=auto;html=1;exitX=0;exitY=1;exitDx=0;exitDy=0;fillColor=#d0cee2;strokeColor=#56517e;" edge="1" parent="1" source="kukGivv9sdmeafwEGvit-1">
          <mxGeometry x="-0.6018" y="-1" relative="1" as="geometry">
            <mxPoint x="230" y="1000" as="targetPoint" />
            <mxPoint x="1" as="offset" />
          </mxGeometry>
        </mxCell>
        <mxCell id="kukGivv9sdmeafwEGvit-1" value="3.3.3&lt;div&gt;Xoá thành viên&amp;nbsp;&lt;/div&gt;" style="ellipse;whiteSpace=wrap;html=1;fillColor=#d0cee2;strokeColor=#56517e;" vertex="1" parent="1">
          <mxGeometry x="500" y="720" width="120" height="80" as="geometry" />
        </mxCell>
        <mxCell id="qza889DcOh_1TMV8TfBh-10" value="Yêu cầu cài đặt không thành công" style="edgeStyle=orthogonalEdgeStyle;rounded=0;orthogonalLoop=1;jettySize=auto;html=1;exitX=0;exitY=0.5;exitDx=0;exitDy=0;entryX=0;entryY=1;entryDx=0;entryDy=0;curved=1;fillColor=#ffe6cc;strokeColor=#d79b00;" edge="1" parent="1" source="qza889DcOh_1TMV8TfBh-3" target="4okW6mIYA5f5L780_QHX-1">
          <mxGeometry relative="1" as="geometry" />
        </mxCell>
        <mxCell id="qza889DcOh_1TMV8TfBh-11" value="Yêu cầu cài đặt thành công" style="edgeStyle=orthogonalEdgeStyle;rounded=0;orthogonalLoop=1;jettySize=auto;html=1;exitX=0;exitY=0;exitDx=0;exitDy=0;entryX=0.25;entryY=1;entryDx=0;entryDy=0;curved=1;fillColor=#ffe6cc;strokeColor=#d79b00;" edge="1" parent="1" source="qza889DcOh_1TMV8TfBh-3" target="4okW6mIYA5f5L780_QHX-1">
          <mxGeometry x="0.053" y="-110" relative="1" as="geometry">
            <mxPoint as="offset" />
          </mxGeometry>
        </mxCell>
        <mxCell id="qza889DcOh_1TMV8TfBh-3" value="3.5&lt;div&gt;Trả lời yêu cầu&lt;/div&gt;" style="ellipse;whiteSpace=wrap;html=1;fillColor=#fad7ac;strokeColor=#b46504;" vertex="1" parent="1">
          <mxGeometry x="130" y="990" width="120" height="80" as="geometry" />
        </mxCell>
      </root>
    </mxGraphModel>
  </diagram>
</mxfile>
